<svg width="54" height="54" viewBox="0 0 54 54" fill="none" xmlns="http://www.w3.org/2000/svg">
<path d="M13.4541 4.22804H18.3337C18.7086 4.22804 19.0124 3.92422 19.0124 3.54932C19.0124 3.17442 18.7086 2.87061 18.3337 2.87061H13.4541C13.0792 2.87061 12.7754 3.17442 12.7754 3.54932C12.7754 3.92422 13.0792 4.22804 13.4541 4.22804Z" fill="#02D2B6" fill-opacity="0.6"/>
<path d="M15.8939 47.3585C14.674 47.3585 13.6816 48.3509 13.6816 49.5709C13.6816 50.7909 14.674 51.7831 15.8939 51.7831C17.1137 51.7831 18.1061 50.7907 18.1061 49.5709C18.1061 48.3511 17.1137 47.3585 15.8939 47.3585ZM15.8939 50.4257C15.4225 50.4257 15.0391 50.0423 15.0391 49.5709C15.0391 49.0995 15.4225 48.716 15.8939 48.716C16.3653 48.716 16.7487 49.0995 16.7487 49.5709C16.7487 50.0423 16.3652 50.4257 15.8939 50.4257Z" fill="#02D2B6" fill-opacity="0.6"/>
<path d="M7.38941 15.9391H15.9636C16.3385 15.9391 16.6423 15.6353 16.6423 15.2604C16.6423 14.8855 16.3385 14.5817 15.9636 14.5817H7.38941C7.01451 14.5817 6.71069 14.8855 6.71069 15.2604C6.71069 15.6353 7.01451 15.9391 7.38941 15.9391Z" fill="#02D2B6" fill-opacity="0.6"/>
<path d="M7.38941 28.2079H15.9636C16.3385 28.2079 16.6423 27.9041 16.6423 27.5292C16.6423 27.1543 16.3385 26.8505 15.9636 26.8505H7.38941C7.01451 26.8505 6.71069 27.1543 6.71069 27.5292C6.71069 27.9041 7.01451 28.2079 7.38941 28.2079Z" fill="#02D2B6" fill-opacity="0.6"/>
<path d="M19.5884 29.3599H7.38941C7.01451 29.3599 6.71069 29.6637 6.71069 30.0386C6.71069 30.4135 7.01451 30.7173 7.38941 30.7173H19.5884C19.9633 30.7173 20.2671 30.4135 20.2671 30.0386C20.2671 29.6637 19.9632 29.3599 19.5884 29.3599Z" fill="#02D2B6" fill-opacity="0.6"/>
<path d="M52.4963 26.9663C52.8712 26.9663 53.175 26.6625 53.175 26.2876V8.89614C53.175 8.52124 52.8712 8.21742 52.4963 8.21742H30.9625V2.82717C30.9625 1.26821 29.6943 0 28.1353 0H3.65212C2.09317 0 0.824951 1.26821 0.824951 2.82717V51.1728C0.824951 52.7317 2.09317 54 3.65212 54H28.1353C29.6943 54 30.9625 52.7318 30.9625 51.1728V41.0749H52.4963C52.8712 41.0749 53.175 40.7711 53.175 40.3962V30.1474C53.175 29.7725 52.8712 29.4687 52.4963 29.4687H30.9625V26.9663H52.4963ZM51.8176 25.6089H22.1322V9.57485H51.8176V25.6089ZM21.4535 29.4688C21.0786 29.4688 20.7748 29.7726 20.7748 30.1475V33.8384H5.34891V22.6198H20.7748V24.3409H7.38938C7.01448 24.3409 6.71067 24.6447 6.71067 25.0196C6.71067 25.3945 7.01448 25.6983 7.38938 25.6983H20.7748V26.2877C20.7748 26.6626 21.0786 26.9664 21.4535 26.9664H26.4385V29.4688H21.4535ZM21.4535 41.075H26.4385V42.2188H5.34891V37.6319H20.7748V40.3963C20.7748 40.7711 21.0786 41.075 21.4535 41.075ZM20.7748 12.0722H7.38938C7.01448 12.0722 6.71067 12.376 6.71067 12.7509C6.71067 13.1258 7.01448 13.4296 7.38938 13.4296H20.7748V18.893H5.34891V10.4745H20.7748V12.0722ZM3.65212 1.35743H28.1353C28.9457 1.35743 29.605 2.01678 29.605 2.82717V6.41351H2.18239V2.82717C2.18239 2.01678 2.84173 1.35743 3.65212 1.35743ZM28.1353 52.6426H3.65212C2.84173 52.6426 2.18239 51.9832 2.18239 51.1728V46.4714H29.605V51.1728C29.605 51.9832 28.9457 52.6426 28.1353 52.6426ZM29.605 45.1141H2.18239V7.77095H29.605V8.21742H21.4535C21.0786 8.21742 20.7748 8.52124 20.7748 8.89614V9.11703H4.67019C4.2953 9.11703 3.99148 9.42085 3.99148 9.79574V19.5717C3.99148 19.9466 4.2953 20.2505 4.67019 20.2505H20.7748V21.2624H4.67019C4.2953 21.2624 3.99148 21.5662 3.99148 21.9411V34.5171C3.99148 34.892 4.2953 35.1958 4.67019 35.1958H20.7748V36.2744H4.67019C4.2953 36.2744 3.99148 36.5782 3.99148 36.9531V42.8974C3.99148 43.2723 4.2953 43.5761 4.67019 43.5761H27.1172C27.4921 43.5761 27.7959 43.2723 27.7959 42.8974V41.0749H29.605V45.1141ZM51.8176 39.7176H22.1322V30.8262H51.8176V39.7176ZM29.605 29.4688H27.7959V26.9664H29.605V29.4688Z" fill="#02D2B6" fill-opacity="0.6"/>
<path d="M25.2134 13.8318H48.7365C49.1114 13.8318 49.4152 13.528 49.4152 13.1531C49.4152 12.7782 49.1114 12.4744 48.7365 12.4744H25.2134C24.8385 12.4744 24.5347 12.7782 24.5347 13.1531C24.5347 13.528 24.8386 13.8318 25.2134 13.8318Z" fill="#02D2B6" fill-opacity="0.6"/>
<path d="M25.2134 17.3024H37.0713C37.4462 17.3024 37.75 16.9986 37.75 16.6237C37.75 16.2488 37.4462 15.9449 37.0713 15.9449H25.2134C24.8385 15.9449 24.5347 16.2488 24.5347 16.6237C24.5347 16.9986 24.8386 17.3024 25.2134 17.3024Z" fill="#02D2B6" fill-opacity="0.6"/>
<path d="M25.2134 33.9933H48.7365C49.1114 33.9933 49.4152 33.6895 49.4152 33.3146C49.4152 32.9397 49.1114 32.6359 48.7365 32.6359H25.2134C24.8385 32.6359 24.5347 32.9397 24.5347 33.3146C24.5347 33.6895 24.8386 33.9933 25.2134 33.9933Z" fill="#02D2B6" fill-opacity="0.6"/>
<path d="M25.2134 37.464H37.0713C37.4462 37.464 37.75 37.1602 37.75 36.7853C37.75 36.4104 37.4462 36.1066 37.0713 36.1066H25.2134C24.8385 36.1066 24.5347 36.4104 24.5347 36.7853C24.5347 37.1602 24.8386 37.464 25.2134 37.464Z" fill="#02D2B6" fill-opacity="0.6"/>
<path d="M25.2134 20.773H42.0845C42.4594 20.773 42.7632 20.4691 42.7632 20.0942C42.7632 19.7193 42.4594 19.4155 42.0845 19.4155H25.2134C24.8385 19.4155 24.5347 19.7193 24.5347 20.0942C24.5347 20.4691 24.8386 20.773 25.2134 20.773Z" fill="#02D2B6" fill-opacity="0.6"/>
<path d="M14.4299 39.2585H7.38941C7.01451 39.2585 6.71069 39.5624 6.71069 39.9373C6.71069 40.3122 7.01451 40.616 7.38941 40.616H14.4299C14.8048 40.616 15.1087 40.3122 15.1087 39.9373C15.1087 39.5624 14.8047 39.2585 14.4299 39.2585Z" fill="#02D2B6" fill-opacity="0.6"/>
</svg>
