<svg width="40" height="40" viewBox="0 0 40 40" fill="none" xmlns="http://www.w3.org/2000/svg">
<path d="M38.7043 10.9416C38.7043 10.9411 38.7044 10.9406 38.7044 10.9402C38.7044 10.9397 38.7043 10.9391 38.7043 10.9387V5.76297C38.7043 4.01258 37.2802 2.58859 35.5299 2.58859H32.233V1.88023C32.233 0.843437 31.3895 0 30.3528 0C29.316 0 28.4726 0.843437 28.4726 1.88023V2.58859H11.5247V1.88023C11.5247 0.843437 10.6812 0 9.64445 0C8.60773 0 7.76422 0.843437 7.76422 1.88023V2.58859H4.46734C2.71695 2.58859 1.29297 4.01266 1.29297 5.76297V36.8256C1.29297 38.576 2.71703 40 4.46734 40H35.5299C37.2803 40 38.7043 38.5759 38.7043 36.8256V13.5302C38.7043 13.5296 38.7044 13.5291 38.7044 13.5287C38.7044 13.5282 38.7043 13.5277 38.7043 13.5272V10.9416ZM29.6444 1.88016C29.6445 1.48961 29.9622 1.17188 30.3528 1.17188C30.7434 1.17188 31.0612 1.48961 31.0612 1.88023V5.76148C31.0612 5.76203 31.0611 5.7625 31.0611 5.76297C31.0611 5.7632 31.0611 5.76344 31.0611 5.76375C31.0607 6.15398 30.7431 6.47133 30.3528 6.47133C29.9623 6.47133 29.6447 6.15375 29.6445 5.76336C29.6445 5.7632 29.6445 5.76312 29.6445 5.76297C29.6445 5.76273 29.6444 5.7625 29.6444 5.76219V1.88016ZM8.93609 1.88023C8.93609 1.48961 9.25383 1.17188 9.64445 1.17188C10.035 1.17188 10.3528 1.48961 10.3528 1.88023V5.76148C10.3528 5.76203 10.3527 5.7625 10.3527 5.76297C10.3527 5.7632 10.3527 5.76344 10.3527 5.76375C10.3523 6.15398 10.0348 6.47133 9.64445 6.47133C9.25383 6.47133 8.93609 6.15359 8.93609 5.76305V1.88023ZM37.5324 36.8256C37.5324 37.9298 36.6341 38.8281 35.5299 38.8281H4.46734C3.36313 38.8281 2.46484 37.9298 2.46484 36.8256V36.6977C3.01156 37.1434 3.70867 37.4113 4.46734 37.4113H35.5299C36.2886 37.4113 36.9858 37.1434 37.5324 36.6977V36.8256ZM37.5324 12.9427H9.52203C9.19844 12.9427 8.93609 13.2051 8.93609 13.5287C8.93609 13.8523 9.19844 14.1146 9.52203 14.1146H37.5324V34.2368C37.5324 35.341 36.6341 36.2393 35.5299 36.2393H4.46734C3.36313 36.2393 2.46484 35.3409 2.46484 34.2368V14.1146H7.17828C7.50187 14.1146 7.76422 13.8523 7.76422 13.5287C7.76422 13.2051 7.50187 12.9427 7.17828 12.9427H2.46484V11.526H37.5324V12.9427ZM37.5324 10.3541H2.46484V5.76297C2.46484 4.65875 3.36313 3.76047 4.46734 3.76047H7.76422V5.17711H7.70297C7.37937 5.17711 7.11703 5.43945 7.11703 5.76305C7.11703 6.08664 7.37937 6.34898 7.70297 6.34898H7.8582C8.10508 7.09961 8.81226 7.6432 9.64445 7.6432C10.4766 7.6432 11.1838 7.09953 11.4307 6.34898H11.5859C11.9095 6.34898 12.1718 6.08664 12.1718 5.76305C12.1718 5.43945 11.9095 5.17711 11.5859 5.17711H11.5247V3.76047H28.4726V5.17711H28.4113C28.0877 5.17711 27.8254 5.43945 27.8254 5.76305C27.8254 6.08664 28.0877 6.34898 28.4113 6.34898H28.5666C28.8134 7.09961 29.5206 7.6432 30.3528 7.6432C31.185 7.6432 31.8922 7.09953 32.1391 6.34898H32.2942C32.6178 6.34898 32.8802 6.08664 32.8802 5.76305C32.8802 5.43945 32.6178 5.17711 32.2942 5.17711H32.233V3.76047H35.5299C36.6341 3.76047 37.5324 4.65883 37.5324 5.76297V10.3541Z" fill="#02D2B6"/>
<path d="M5.17578 19.9999V25.177C5.17578 25.5006 5.43813 25.763 5.76172 25.763H10.9388C11.2624 25.763 11.5247 25.5006 11.5247 25.177V19.9999C11.5247 19.6763 11.2624 19.414 10.9388 19.414H5.76172C5.43813 19.414 5.17578 19.6763 5.17578 19.9999ZM6.34766 20.5859H10.3528V24.5911H6.34766V20.5859Z" fill="#02D2B6"/>
<path d="M13.5273 25.763H18.7045C19.028 25.763 19.2904 25.5006 19.2904 25.177V19.9999C19.2904 19.6763 19.028 19.414 18.7045 19.414H13.5273C13.2038 19.414 12.9414 19.6763 12.9414 19.9999V25.177C12.9414 25.5006 13.2038 25.763 13.5273 25.763ZM14.1133 20.5859H18.1185V24.5911H14.1133V20.5859Z" fill="#02D2B6"/>
<path d="M21.293 25.763H26.4701C26.7937 25.763 27.056 25.5006 27.056 25.177V19.9999C27.056 19.6763 26.7937 19.414 26.4701 19.414H21.293C20.9694 19.414 20.707 19.6763 20.707 19.9999V25.177C20.707 25.5006 20.9694 25.763 21.293 25.763ZM21.8789 20.5859H25.8841V24.5911H21.8789V20.5859Z" fill="#02D2B6"/>
<path d="M29.0576 25.763H34.2346C34.5582 25.763 34.8206 25.5006 34.8206 25.177V19.9999C34.8206 19.6763 34.5582 19.414 34.2346 19.414H29.0576C28.734 19.414 28.4717 19.6763 28.4717 19.9999V25.177C28.4717 25.5006 28.734 25.763 29.0576 25.763ZM29.6436 20.5859H33.6487V24.5911H29.6436V20.5859Z" fill="#02D2B6"/>
<path d="M10.9388 27.1797H5.76172C5.43813 27.1797 5.17578 27.4421 5.17578 27.7657V32.9428C5.17578 33.2664 5.43813 33.5287 5.76172 33.5287H10.9388C11.2624 33.5287 11.5247 33.2664 11.5247 32.9428V27.7657C11.5247 27.4421 11.2624 27.1797 10.9388 27.1797ZM10.3528 32.3569H6.34766V28.3516H10.3528V32.3569Z" fill="#02D2B6"/>
<path d="M13.5273 33.5287H18.7045C19.028 33.5287 19.2904 33.2664 19.2904 32.9428V27.7657C19.2904 27.4421 19.028 27.1797 18.7045 27.1797H13.5273C13.2038 27.1797 12.9414 27.4421 12.9414 27.7657V32.9428C12.9414 33.2664 13.2038 33.5287 13.5273 33.5287ZM14.1133 28.3516H18.1185V32.3569H14.1133V28.3516Z" fill="#02D2B6"/>
<path d="M21.293 33.5287H26.4701C26.7937 33.5287 27.056 33.2664 27.056 32.9428V27.7657C27.056 27.4421 26.7937 27.1797 26.4701 27.1797H21.293C20.9694 27.1797 20.707 27.4421 20.707 27.7657V32.9428C20.707 33.2664 20.9694 33.5287 21.293 33.5287ZM21.8789 28.3516H25.8841V32.3569H21.8789V28.3516Z" fill="#02D2B6"/>
<path d="M29.0576 33.5287H34.2346C34.5582 33.5287 34.8206 33.2664 34.8206 32.9428V27.7657C34.8206 27.4421 34.5582 27.1797 34.2346 27.1797H29.0576C28.734 27.1797 28.4717 27.4421 28.4717 27.7657V32.9428C28.4717 33.2664 28.734 33.5287 29.0576 33.5287ZM29.6436 28.3516H33.6487V32.3569H29.6436V28.3516Z" fill="#02D2B6"/>
<path d="M6.4707 17.4112C6.4707 17.7348 6.73297 17.9971 7.05664 17.9971H9.64531C9.96891 17.9971 10.2313 17.7348 10.2313 17.4112C10.2313 17.0876 9.96891 16.8253 9.64531 16.8253H7.05664C6.73305 16.8253 6.4707 17.0876 6.4707 17.4112Z" fill="#02D2B6"/>
<path d="M14.8203 17.9971H17.409C17.7326 17.9971 17.9949 17.7348 17.9949 17.4112C17.9949 17.0876 17.7326 16.8253 17.409 16.8253H14.8203C14.4967 16.8253 14.2344 17.0876 14.2344 17.4112C14.2344 17.7348 14.4967 17.9971 14.8203 17.9971Z" fill="#02D2B6"/>
<path d="M22.5859 17.9971H25.1746C25.4982 17.9971 25.7605 17.7348 25.7605 17.4112C25.7605 17.0876 25.4982 16.8253 25.1746 16.8253H22.5859C22.2623 16.8253 22 17.0876 22 17.4112C22 17.7348 22.2623 17.9971 22.5859 17.9971Z" fill="#02D2B6"/>
<path d="M30.3535 17.9971H32.9422C33.2658 17.9971 33.5281 17.7348 33.5281 17.4112C33.5281 17.0876 33.2658 16.8253 32.9422 16.8253H30.3535C30.0299 16.8253 29.7676 17.0876 29.7676 17.4112C29.7676 17.7348 30.0299 17.9971 30.3535 17.9971Z" fill="#02D2B6"/>
</svg>
