<svg width="80" height="80" viewBox="0 0 80 80" fill="none" xmlns="http://www.w3.org/2000/svg">
<g clip-path="url(#clip0)">
<path d="M10.3369 14.7471C12.5043 14.7471 14.267 12.9844 14.267 10.817C14.267 8.64966 12.5037 6.88696 10.3369 6.88696C8.16956 6.88696 6.40625 8.64966 6.40625 10.817C6.40625 12.9844 8.16956 14.7471 10.3369 14.7471ZM10.3369 9.23072C11.2116 9.23072 11.9232 9.94239 11.9232 10.817C11.9232 11.6917 11.2116 12.4033 10.3369 12.4033C9.46168 12.4033 8.75 11.6917 8.75 10.817C8.75 9.94239 9.46168 9.23072 10.3369 9.23072Z" fill="#02D2B6" fill-opacity="0.6"/>
<path d="M19.6742 14.7471C21.8416 14.7471 23.6049 12.9844 23.6049 10.817C23.6049 8.64966 21.8416 6.88696 19.6742 6.88696C17.5074 6.88696 15.7441 8.64966 15.7441 10.817C15.7441 12.9844 17.5068 14.7471 19.6742 14.7471ZM19.6742 9.23072C20.5494 9.23072 21.2611 9.94239 21.2611 10.817C21.2611 11.6917 20.5494 12.4033 19.6742 12.4033C18.7996 12.4033 18.0879 11.6917 18.0879 10.817C18.0879 9.94239 18.7996 9.23072 19.6742 9.23072Z" fill="#02D2B6" fill-opacity="0.6"/>
<path d="M29.012 14.7471C31.1787 14.7471 32.942 12.9844 32.942 10.817C32.942 8.64966 31.1787 6.88696 29.012 6.88696C26.8446 6.88696 25.0813 8.64966 25.0813 10.817C25.0813 12.9844 26.8446 14.7471 29.012 14.7471ZM29.012 9.23072C29.8866 9.23072 30.5983 9.94239 30.5983 10.817C30.5983 11.6917 29.8866 12.4033 29.012 12.4033C28.1367 12.4033 27.4251 11.6917 27.4251 10.817C27.4251 9.94239 28.1367 9.23072 29.012 9.23072Z" fill="#02D2B6" fill-opacity="0.6"/>
<path d="M41.9795 11.989H70.5214C71.1684 11.989 71.6933 11.4647 71.6933 10.8171C71.6933 10.1696 71.1684 9.64526 70.5214 9.64526H41.9795C41.3319 9.64526 40.8076 10.1696 40.8076 10.8171C40.8076 11.4647 41.3319 11.989 41.9795 11.989Z" fill="#02D2B6" fill-opacity="0.6"/>
<path d="M28.7833 42H72.2167C73.2012 42 74 41.5526 74 41C74 40.4474 73.2012 40 72.2167 40H28.7833C27.7978 40 27 40.4474 27 41C27 41.5526 27.7978 42 28.7833 42Z" fill="#02D2B6" fill-opacity="0.6"/>
<path d="M28.7833 47H72.2167C73.2012 47 74 46.5526 74 46C74 45.4474 73.2012 45 72.2167 45H28.7833C27.7978 45 27 45.4474 27 46C27 46.5526 27.7978 47 28.7833 47Z" fill="#02D2B6" fill-opacity="0.6"/>
<path d="M28.0624 52H53.9376C54.5241 52 55 51.5526 55 51C55 50.4474 54.5241 50 53.9376 50H28.0624C27.4753 50 27 50.4474 27 51C27 51.5526 27.4753 52 28.0624 52Z" fill="#02D2B6" fill-opacity="0.6"/>
<path d="M74.9507 2.65625H4.73695C2.02881 2.65625 -0.15625 4.86145 -0.15625 7.54945V72.7449C-0.15625 73.0189 -0.133667 73.2875 -0.0903319 73.5493C-0.083618 73.5896 -0.0762937 73.6299 -0.0683592 73.6696C-0.064697 73.6897 -0.061035 73.7099 -0.0567625 73.7294C0.400392 75.9572 2.3761 77.6381 4.73695 77.6381H74.9507C77.3116 77.6381 79.2873 75.9572 79.7444 73.7294C79.7481 73.7099 79.7524 73.6897 79.756 73.6696C79.764 73.6299 79.7707 73.5896 79.7774 73.5493C79.8213 73.2875 79.8439 73.0189 79.8439 72.7449V7.54945C79.8439 4.85596 77.6534 2.65625 74.9507 2.65625ZM74.9507 5C76.3588 5 77.5002 6.14625 77.5002 7.54945V16.6345H13.0951C12.4481 16.6345 11.9232 17.1595 11.9232 17.8064C11.9232 18.454 12.4481 18.9783 13.0951 18.9783H77.5002V57.8456H2.1875V18.9783H8.72011C9.36769 18.9783 9.89199 18.454 9.89199 17.8064C9.89199 17.1595 9.36769 16.6345 8.72011 16.6345H2.1875V7.54945C2.1875 6.14014 3.33436 5 4.73695 5H74.9507ZM4.73695 75.2943C3.59498 75.2943 2.62574 74.5393 2.30225 73.5017C2.2992 73.492 2.29615 73.4822 2.2931 73.4718C2.28394 73.4419 2.27601 73.4114 2.26807 73.3809C2.26502 73.3711 2.26258 73.3607 2.26014 73.3504C2.25281 73.3198 2.24549 73.2887 2.23938 73.2576C2.22657 73.1953 2.21619 73.1325 2.20826 73.069C2.2052 73.0476 2.20276 73.0263 2.20093 73.0049C2.19178 72.9194 2.1875 72.8322 2.1875 72.7449V60.1893H77.5002V72.7449C77.5002 72.8322 77.4959 72.9194 77.4867 73.0049C77.4849 73.0263 77.4825 73.0476 77.4794 73.069C77.4715 73.1325 77.4611 73.1953 77.4483 73.2576C77.4422 73.2887 77.4348 73.3198 77.4275 73.3504C77.4251 73.3607 77.4226 73.3711 77.4196 73.3809C77.4123 73.4114 77.4037 73.4419 77.3946 73.4718C77.3915 73.4822 77.3885 73.492 77.3854 73.5017C77.0619 74.5393 76.0927 75.2943 74.9507 75.2943H4.73695Z" fill="#02D2B6" fill-opacity="0.6"/>
<path d="M68.8801 63.5229H45.2344C43.6835 63.5229 42.4219 64.7845 42.4219 66.3354V69.1479C42.4219 70.6989 43.6835 71.9604 45.2344 71.9604H68.8801C70.431 71.9604 71.6926 70.6989 71.6926 69.1479V66.3354C71.6926 64.7852 70.431 63.5229 68.8801 63.5229ZM69.3488 69.1479C69.3488 69.4067 69.1388 69.6167 68.8801 69.6167H45.2344C44.9762 69.6167 44.7656 69.4067 44.7656 69.1479V66.3354C44.7656 66.0773 44.9762 65.8667 45.2344 65.8667H68.8801C69.1388 65.8667 69.3488 66.0773 69.3488 66.3354V69.1479Z" fill="#02D2B6" fill-opacity="0.6"/>
<rect x="5" y="23" width="69" height="12" rx="1" stroke="#02D2B6" stroke-opacity="0.6" stroke-width="2"/>
<line y1="-1" x2="3.9863" y2="-1" transform="matrix(0.752577 0.658505 -0.752577 0.658505 9 29.375)" stroke="#02D2B6" stroke-opacity="0.6" stroke-width="2"/>
<line y1="-1" x2="10.6301" y2="-1" transform="matrix(-0.752577 0.658505 -0.752577 -0.658505 20 25)" stroke="#02D2B6" stroke-opacity="0.6" stroke-width="2"/>
<line y1="-1" x2="3.9863" y2="-1" transform="matrix(0.752577 0.658505 -0.752577 0.658505 33 29.375)" stroke="#02D2B6" stroke-opacity="0.6" stroke-width="2"/>
<line y1="-1" x2="10.6301" y2="-1" transform="matrix(-0.752577 0.658505 -0.752577 -0.658505 44 25)" stroke="#02D2B6" stroke-opacity="0.6" stroke-width="2"/>
<line y1="-1" x2="10.6301" y2="-1" transform="matrix(-0.752577 0.658505 -0.752577 -0.658505 68 25)" stroke="#02D2B6" stroke-opacity="0.6" stroke-width="2"/>
<line y1="-1" x2="10.6301" y2="-1" transform="matrix(0.707107 0.707107 -0.606985 0.794713 60 26)" stroke="#02D2B6" stroke-opacity="0.6" stroke-width="2"/>
<rect x="6" y="40" width="18" height="15" rx="1" stroke="#02D2B6" stroke-opacity="0.6" stroke-width="2"/>
</g>
<defs>
<clipPath id="clip0">
<rect width="80" height="80" fill="white"/>
</clipPath>
</defs>
</svg>
