<svg width="60" height="60" viewBox="0 0 60 60" fill="none" xmlns="http://www.w3.org/2000/svg">
<path d="M13.0067 3.9349C12.8438 3.77072 11.8882 3.47342 11.5734 4.21955C11.2837 4.95923 11.9975 5.65873 12.722 5.3681C13.3091 5.12095 13.4431 4.37107 13.0067 3.9349Z" fill="#02D2B6" fill-opacity="0.6"/>
<path d="M15.5264 3.93507C15.2271 3.63741 14.0251 3.76889 14.0251 4.55616C14.0251 5.03475 14.4137 5.43507 14.9041 5.43507C15.6859 5.43507 16.0766 4.48913 15.5264 3.93507Z" fill="#02D2B6" fill-opacity="0.6"/>
<path d="M18.2852 4.38495C18.181 3.88468 16.5437 3.50698 16.5437 4.55605C16.5437 5.25343 17.3215 5.67542 17.9114 5.2873C18.211 5.08972 18.355 4.71999 18.2852 4.38495Z" fill="#02D2B6" fill-opacity="0.6"/>
<path d="M55.539 3.67749H20.4016C19.9162 3.67749 19.5227 4.07089 19.5227 4.5564C19.5227 5.04191 19.9162 5.4353 20.4016 5.4353H55.5391C56.0245 5.4353 56.418 5.04191 56.418 4.5564C56.418 4.07089 56.0245 3.67749 55.539 3.67749Z" fill="#02D2B6" fill-opacity="0.6"/>
<path d="M25.2568 25.7822C24.7714 25.7822 24.3779 26.1756 24.3779 26.6611V30.1614C24.3779 30.6469 24.7714 31.0403 25.2568 31.0403C25.7422 31.0403 26.1357 30.6468 26.1357 30.1614V26.6611C26.1357 26.1756 25.7422 25.7822 25.2568 25.7822Z" fill="#02D2B6" fill-opacity="0.6"/>
<path d="M29.4036 25.7822C28.0926 25.7822 27.0261 26.9617 27.0261 28.4113C27.0261 29.8611 28.0926 31.0404 29.4036 31.0404C30.7146 31.0404 31.7811 29.8609 31.7811 28.4113C31.7811 26.9616 30.7146 25.7822 29.4036 25.7822ZM29.4036 29.2827C29.0678 29.2827 28.7841 28.8838 28.7841 28.4116C28.7841 27.9393 29.0678 27.5404 29.4036 27.5404C29.7395 27.5404 30.0232 27.9393 30.0232 28.4116C30.0233 28.8837 29.7395 29.2827 29.4036 29.2827Z" fill="#02D2B6" fill-opacity="0.6"/>
<path d="M33.5764 25.7822C33.0909 25.7822 32.6975 26.1756 32.6975 26.6611V30.1614C32.6975 30.6469 33.0909 31.0403 33.5764 31.0403C34.0619 31.0403 34.4553 30.6468 34.4553 30.1614V26.6611C34.4554 26.1756 34.062 25.7822 33.5764 25.7822Z" fill="#02D2B6" fill-opacity="0.6"/>
<path d="M37.7232 25.7822C36.4122 25.7822 35.3457 26.9617 35.3457 28.4113C35.3457 29.8611 36.4122 31.0404 37.7232 31.0404C39.0342 31.0404 40.1006 29.8609 40.1006 28.4113C40.1006 26.9616 39.0341 25.7822 37.7232 25.7822ZM37.7232 29.2827C37.3873 29.2827 37.1036 28.8838 37.1036 28.4116C37.1036 27.9393 37.3873 27.5404 37.7232 27.5404C38.0589 27.5404 38.3427 27.9393 38.3427 28.4116C38.3427 28.8837 38.0589 29.2827 37.7232 29.2827Z" fill="#02D2B6" fill-opacity="0.6"/>
<path d="M41.803 25.7822C41.3175 25.7822 40.9241 26.1756 40.9241 26.6611V30.1614C40.9241 30.6468 41.3175 31.0403 41.803 31.0403C42.2885 31.0403 42.6819 30.6469 42.6819 30.1614V26.6611C42.6819 26.1756 42.2885 25.7822 41.803 25.7822Z" fill="#02D2B6" fill-opacity="0.6"/>
<path d="M45.9495 25.7822C44.6385 25.7822 43.572 26.9617 43.572 28.4113C43.572 29.8611 44.6387 31.0404 45.9495 31.0404C47.2606 31.0404 48.327 29.8609 48.327 28.4113C48.327 26.9616 47.2605 25.7822 45.9495 25.7822ZM45.9495 29.2827C45.6137 29.2827 45.33 28.8838 45.33 28.4116C45.33 27.9393 45.6137 27.5404 45.9495 27.5404C46.2854 27.5404 46.5691 27.9393 46.5691 28.4116C46.5691 28.8837 46.2854 29.2827 45.9495 29.2827Z" fill="#02D2B6" fill-opacity="0.6"/>
<path d="M47.4482 33.0312C46.9629 33.0312 46.5693 33.4246 46.5693 33.9102V37.4103C46.5693 37.8958 46.9629 38.2892 47.4482 38.2892C47.9338 38.2892 48.3271 37.8958 48.3271 37.4103V33.9102C48.3271 33.4246 47.9338 33.0312 47.4482 33.0312Z" fill="#02D2B6" fill-opacity="0.6"/>
<path d="M43.3016 33.0312C41.9906 33.0314 40.9241 34.2107 40.9241 35.6602C40.9241 37.11 41.9907 38.2893 43.3016 38.2893C44.6126 38.2893 45.6791 37.11 45.6791 35.6602C45.6792 34.2106 44.6126 33.0312 43.3016 33.0312ZM43.3016 36.5315C42.9657 36.5315 42.682 36.1326 42.682 35.6604C42.682 35.1881 42.9657 34.7893 43.3016 34.7893C43.6374 34.7893 43.9211 35.1881 43.9211 35.6604C43.9213 36.1326 43.6376 36.5315 43.3016 36.5315Z" fill="#02D2B6" fill-opacity="0.6"/>
<path d="M39.2214 33.0312C38.7359 33.0312 38.3425 33.4246 38.3425 33.9102V37.4103C38.3425 37.8958 38.736 38.2892 39.2214 38.2892C39.7069 38.2892 40.1003 37.8958 40.1003 37.4103V33.9102C40.1005 33.4246 39.7071 33.0312 39.2214 33.0312Z" fill="#02D2B6" fill-opacity="0.6"/>
<path d="M35.075 33.0312C33.764 33.0312 32.6975 34.2107 32.6975 35.6602C32.6975 37.11 33.7641 38.2893 35.075 38.2893C36.3859 38.2893 37.4525 37.11 37.4525 35.6602C37.4525 34.2106 36.386 33.0312 35.075 33.0312ZM35.075 36.5315C34.7391 36.5315 34.4554 36.1326 34.4554 35.6604C34.4554 35.1881 34.7391 34.7893 35.075 34.7893C35.4109 34.7893 35.6946 35.1881 35.6946 35.6604C35.6946 36.1326 35.4109 36.5315 35.075 36.5315Z" fill="#02D2B6" fill-opacity="0.6"/>
<path d="M30.9021 33.0312C30.4166 33.0312 30.0232 33.4246 30.0232 33.9102V37.4103C30.0232 37.8958 30.4166 38.2892 30.9021 38.2892C31.3875 38.2892 31.781 37.8958 31.781 37.4103V33.9102C31.781 33.4246 31.3875 33.0312 30.9021 33.0312Z" fill="#02D2B6" fill-opacity="0.6"/>
<path d="M26.7554 33.0312C25.4445 33.0312 24.3779 34.2107 24.3779 35.6602C24.3779 37.11 25.4446 38.2893 26.7554 38.2893C28.0664 38.2893 29.1329 37.11 29.1329 35.6602C29.1329 34.2106 28.0665 33.0312 26.7554 33.0312ZM26.7554 36.5315C26.4196 36.5315 26.1359 36.1326 26.1359 35.6604C26.1359 35.1881 26.4197 34.7893 26.7554 34.7893C27.0913 34.7893 27.375 35.1881 27.375 35.6604C27.375 36.1326 27.0913 36.5315 26.7554 36.5315Z" fill="#02D2B6" fill-opacity="0.6"/>
<path d="M4.72105 16.9399C3.69144 16.9399 3.49644 18.4619 4.54878 18.6803C4.85195 18.7425 5.15933 18.6286 5.34214 18.4401C5.8832 17.9149 5.52414 16.9399 4.72105 16.9399Z" fill="#02D2B6" fill-opacity="0.6"/>
<path d="M6.5093 17.3302C5.86336 18.3115 7.32176 19.2577 7.97074 18.3065C8.55129 17.4248 7.17 16.3251 6.5093 17.3302Z" fill="#02D2B6" fill-opacity="0.6"/>
<path d="M9.93033 16.9563C9.6444 16.899 9.34088 16.9927 9.13697 17.1966C8.45506 17.8776 9.21713 19.001 10.0944 18.63C10.8953 18.2925 10.7809 17.1344 9.93033 16.9563Z" fill="#02D2B6" fill-opacity="0.6"/>
<path d="M47.8742 16.9397H12.7368C12.2514 16.9397 11.8579 17.3331 11.8579 17.8186C11.8579 18.3041 12.2514 18.6975 12.7368 18.6975H47.8742C48.3597 18.6975 48.7531 18.3041 48.7531 17.8186C48.7531 17.3331 48.3597 16.9397 47.8742 16.9397Z" fill="#02D2B6" fill-opacity="0.6"/>
<path d="M36.5735 41.6572H25.2568C24.7714 41.6572 24.3779 42.0506 24.3779 42.5361C24.3779 43.0216 24.7714 43.415 25.2568 43.415H36.5735C37.059 43.415 37.4524 43.0215 37.4524 42.5361C37.4524 42.0506 37.059 41.6572 36.5735 41.6572Z" fill="#02D2B6" fill-opacity="0.6"/>
<path d="M47.448 45.7161H25.2568C24.7714 45.7161 24.3779 46.1095 24.3779 46.595C24.3779 47.0805 24.7714 47.4739 25.2568 47.4739H47.4479C47.9334 47.4739 48.3268 47.0805 48.3268 46.595C48.327 46.1095 47.9336 45.7161 47.448 45.7161Z" fill="#02D2B6" fill-opacity="0.6"/>
<path d="M47.448 49.7749H25.2568C24.7714 49.7749 24.3779 50.1684 24.3779 50.6538C24.3779 51.1393 24.7714 51.5327 25.2568 51.5327H47.4479C47.9334 51.5327 48.3268 51.1393 48.3268 50.6538C48.3268 50.1683 47.9336 49.7749 47.448 49.7749Z" fill="#02D2B6" fill-opacity="0.6"/>
<path d="M47.448 53.834H25.2568C24.7714 53.834 24.3779 54.2274 24.3779 54.7129C24.3779 55.1984 24.7714 55.5918 25.2568 55.5918H47.4479C47.9334 55.5918 48.3268 55.1984 48.3268 54.7129C48.327 54.2276 47.9336 53.834 47.448 53.834Z" fill="#02D2B6" fill-opacity="0.6"/>
<path d="M11.2306 41.6572H4.86987C4.38448 41.6572 3.99097 42.0506 3.99097 42.5361C3.99097 43.0216 4.38448 43.415 4.86987 43.415H11.2306C11.716 43.415 12.1095 43.0215 12.1095 42.5361C12.1095 42.0506 11.716 41.6572 11.2306 41.6572Z" fill="#02D2B6" fill-opacity="0.6"/>
<path d="M17.3427 45.7161H4.86987C4.38448 45.7161 3.99097 46.1095 3.99097 46.595C3.99097 47.0804 4.38448 47.4739 4.86987 47.4739H17.3427C17.8281 47.4739 18.2216 47.0805 18.2216 46.595C18.2216 46.1095 17.8281 45.7161 17.3427 45.7161Z" fill="#02D2B6" fill-opacity="0.6"/>
<path d="M17.3427 49.7749H4.86987C4.38448 49.7749 3.99097 50.1684 3.99097 50.6538C3.99097 51.1392 4.38448 51.5327 4.86987 51.5327H17.3427C17.8281 51.5327 18.2216 51.1393 18.2216 50.6538C18.2216 50.1684 17.8281 49.7749 17.3427 49.7749Z" fill="#02D2B6" fill-opacity="0.6"/>
<path d="M17.3427 53.834H4.86987C4.38448 53.834 3.99097 54.2274 3.99097 54.7129C3.99097 55.1984 4.38448 55.5918 4.86987 55.5918H17.3427C17.8281 55.5918 18.2216 55.1984 18.2216 54.7129C18.2216 54.2274 17.8281 53.834 17.3427 53.834Z" fill="#02D2B6" fill-opacity="0.6"/>
<path d="M16.1213 25.7822H6.09096C4.93279 25.7822 3.99072 26.7243 3.99072 27.8825V36.1888C3.99072 37.347 4.93279 38.2891 6.09096 38.2891H16.1213C17.2794 38.2891 18.2215 37.347 18.2215 36.1888V27.8825C18.2215 26.7243 17.2794 25.7822 16.1213 25.7822ZM16.4637 36.1888C16.4637 36.3743 16.307 36.5311 16.1214 36.5311H6.09096C5.90545 36.5311 5.74865 36.3743 5.74865 36.1888V27.8825C5.74865 27.697 5.90533 27.5402 6.09096 27.5402H16.1213C16.3068 27.5402 16.4636 27.697 16.4636 27.8825V36.1888H16.4637Z" fill="#02D2B6" fill-opacity="0.6"/>
<path d="M59.1211 12.9693C59.6066 12.9693 60 12.5759 60 12.0904C60 11.1061 60 4.91496 60 3.9109C60 1.75441 58.2456 0 56.0892 0H11.5755C9.41918 0 7.66477 1.75441 7.66477 3.91078C7.66477 5.87602 7.66477 11.3027 7.66477 13.2622H3.91078C1.75441 13.2622 0 15.0166 0 17.173C0 18.3004 0 55.9634 0 56.0891C0 58.2455 1.75441 59.9999 3.91078 59.9999H5.18883C5.67422 59.9999 6.06773 59.6065 6.06773 59.121C6.06773 58.6356 5.67422 58.2421 5.18883 58.2421H3.91078C2.72367 58.2421 1.75793 57.2762 1.75793 56.0892V22.1811H20.5345V58.2421H9.29062C8.80523 58.2421 8.41172 58.6356 8.41172 59.121C8.41172 59.6065 8.80523 59.9999 9.29062 59.9999H48.4243C50.5807 59.9999 52.3351 58.2455 52.3351 56.0891V46.7377H56.0891C58.2455 46.7377 59.9999 44.9832 59.9999 42.8269V16.192C59.9999 15.7065 59.6065 15.3131 59.121 15.3131C58.6355 15.3131 58.2421 15.7065 58.2421 16.192V42.827C58.2421 44.0141 57.2762 44.9798 56.0892 44.9798H52.3352C52.345 36.8302 52.3968 17.0386 52.2456 16.3424C51.8587 14.5676 50.2774 13.2622 48.4244 13.2622H29.9572V8.91891H58.2421V12.0904C58.2421 12.5759 58.6355 12.9693 59.1211 12.9693ZM9.4227 8.91891H28.1994V13.2622H9.4227V8.91891ZM48.7918 15.0538C49.798 15.2324 50.5772 16.1126 50.5772 17.1729V20.4231H43.8539C43.3684 20.4231 42.975 20.8165 42.975 21.302C42.975 21.7875 43.3684 22.1809 43.8539 22.1809H50.5772C50.5772 23.8586 50.5772 55.0624 50.5772 56.089C50.5772 57.2761 49.6113 58.2418 48.4243 58.2418H22.2925V22.1811H39.7521C40.2376 22.1811 40.631 21.7877 40.631 21.3022C40.631 20.8167 40.2376 20.4233 39.7521 20.4233C37.7793 20.4233 3.83063 20.4233 1.75793 20.4233V17.173C1.75793 15.9859 2.72379 15.0202 3.91078 15.0202C50.9011 15.02 48.489 15.0015 48.7918 15.0538ZM58.242 7.16086C56.0136 7.16086 11.6331 7.16086 9.4227 7.16086V3.91078C9.4227 2.72367 10.3884 1.75781 11.5755 1.75781H56.0891C57.2762 1.75781 58.242 2.72367 58.242 3.91066V7.16086Z" fill="#02D2B6" fill-opacity="0.6"/>
</svg>
