<svg width="80" height="80" viewBox="0 0 80 80" fill="none" xmlns="http://www.w3.org/2000/svg">
<g clip-path="url(#clip0)">
<path d="M14.267 10.8176C14.267 8.65027 12.5043 6.88696 10.3369 6.88696C8.16956 6.88696 6.40625 8.65027 6.40625 10.8176C6.40625 12.9844 8.16956 14.7477 10.3369 14.7477C12.5037 14.7477 14.267 12.9844 14.267 10.8176ZM8.75 10.8176C8.75 9.94239 9.46229 9.23072 10.3369 9.23072C11.2116 9.23072 11.9232 9.94239 11.9232 10.8176C11.9232 11.6923 11.2116 12.4039 10.3369 12.4039C9.46229 12.4039 8.75 11.6923 8.75 10.8176Z" fill="#02D2B6" fill-opacity="0.6"/>
<path d="M19.6742 14.7477C21.8416 14.7477 23.6049 12.9844 23.6049 10.8176C23.6049 8.65027 21.8416 6.88696 19.6742 6.88696C17.5068 6.88696 15.7441 8.65027 15.7441 10.8176C15.7441 12.9844 17.5068 14.7477 19.6742 14.7477ZM19.6742 9.23072C20.5494 9.23072 21.2611 9.94239 21.2611 10.8176C21.2611 11.6923 20.5488 12.4039 19.6742 12.4039C18.7996 12.4039 18.0879 11.6923 18.0879 10.8176C18.0879 9.94239 18.7996 9.23072 19.6742 9.23072Z" fill="#02D2B6" fill-opacity="0.6"/>
<path d="M29.012 14.7477C31.1787 14.7477 32.942 12.9844 32.942 10.8176C32.942 8.65027 31.1787 6.88696 29.012 6.88696C26.8446 6.88696 25.0813 8.65027 25.0813 10.8176C25.0813 12.9844 26.8446 14.7477 29.012 14.7477ZM29.012 9.23072C29.8866 9.23072 30.5983 9.94239 30.5983 10.8176C30.5983 11.6923 29.8866 12.4039 29.012 12.4039C28.1367 12.4039 27.4251 11.6923 27.4251 10.8176C27.4251 9.94239 28.1367 9.23072 29.012 9.23072Z" fill="#02D2B6" fill-opacity="0.6"/>
<path d="M41.9795 11.9895H70.5208C71.1684 11.9895 71.6927 11.4646 71.6927 10.8176C71.6927 10.17 71.1684 9.64575 70.5208 9.64575H41.9795C41.3319 9.64575 40.8076 10.17 40.8076 10.8176C40.8076 11.4646 41.3319 11.9895 41.9795 11.9895Z" fill="#02D2B6" fill-opacity="0.6"/>
<path d="M74.9507 2.65625H4.73695C2.03919 2.65625 -0.15625 4.85108 -0.15625 7.54945V72.7449C-0.15625 75.4433 2.03919 77.6381 4.73695 77.6381H74.9507C77.6485 77.6381 79.8439 75.4433 79.8439 72.7449V7.54945C79.8439 4.85108 77.6485 2.65625 74.9507 2.65625ZM74.9507 75.2943H4.73695C3.33131 75.2943 2.1875 74.1505 2.1875 72.7449V18.9789H8.72011C9.36769 18.9789 9.89199 18.454 9.89199 17.807C9.89199 17.1595 9.36769 16.6352 8.72011 16.6352H2.1875V7.54945C2.1875 6.14381 3.33131 5 4.73695 5H74.9507C76.3564 5 77.5002 6.14381 77.5002 7.54945V16.6352H13.0951C12.4481 16.6352 11.9232 17.1595 11.9232 17.807C11.9232 18.454 12.4481 18.9789 13.0951 18.9789H77.5002V72.7449C77.5002 74.1505 76.3564 75.2943 74.9507 75.2943Z" fill="#02D2B6" fill-opacity="0.6"/>
<path d="M14.8792 21.7876C14.2316 21.7876 13.7073 22.3125 13.7073 22.9595V70.7721C13.7073 71.419 14.2316 71.944 14.8792 71.944C15.5261 71.944 16.051 71.419 16.051 70.7721V22.9595C16.051 22.3125 15.5261 21.7876 14.8792 21.7876Z" fill="#02D2B6" fill-opacity="0.6"/>
<path d="M24.0179 30.7117C24.4751 30.2545 24.4751 29.5123 24.0179 29.0545L21.3843 26.4215L24.0179 23.7884C24.4751 23.3307 24.4751 22.5885 24.0179 22.1307C23.5595 21.6736 22.818 21.6736 22.3602 22.1307L18.8983 25.5926C18.4411 26.0504 18.4411 26.7926 18.8983 27.2503L22.3602 30.7117C22.818 31.1694 23.5595 31.1694 24.0179 30.7117Z" fill="#02D2B6" fill-opacity="0.6"/>
<path d="M34.0602 30.7117C34.5179 31.1694 35.2601 31.1694 35.7179 30.7117L39.1798 27.2503C39.6369 26.7926 39.6369 26.0504 39.1798 25.5926L35.7179 22.1307C35.2601 21.6736 34.5179 21.6736 34.0602 22.1307C33.603 22.5885 33.603 23.3307 34.0602 23.7884L36.6938 26.4215L34.0602 29.0545C33.603 29.5123 33.603 30.2545 34.0602 30.7117Z" fill="#02D2B6" fill-opacity="0.6"/>
<path d="M26.5392 30.8989C26.7236 31.0051 26.9244 31.0551 27.1227 31.0551C27.528 31.0551 27.9223 30.8445 28.1396 30.468L32.124 23.5441C32.4462 22.9832 32.2534 22.2666 31.6925 21.9438C31.1315 21.6215 30.415 21.8138 30.0921 22.3753L26.1077 29.2985C25.7848 29.8594 25.9783 30.576 26.5392 30.8989Z" fill="#02D2B6" fill-opacity="0.6"/>
<path d="M19.3623 36.6248C19.3623 37.2717 19.8866 37.7966 20.5342 37.7966H25.2217C25.8687 37.7966 26.3936 37.2717 26.3936 36.6248C26.3936 35.9772 25.8687 35.4529 25.2217 35.4529H20.5342C19.8866 35.4529 19.3623 35.9772 19.3623 36.6248Z" fill="#02D2B6" fill-opacity="0.6"/>
<path d="M29.0295 36.6248C29.0295 37.2717 29.5544 37.7966 30.2014 37.7966H58.9716C59.6186 37.7966 60.1435 37.2717 60.1435 36.6248C60.1435 35.9772 59.6186 35.4529 58.9716 35.4529H30.2014C29.5544 35.4529 29.0295 35.9772 29.0295 36.6248Z" fill="#02D2B6" fill-opacity="0.6"/>
<path d="M20.5342 44.522H40.1631C40.8107 44.522 41.335 43.9971 41.335 43.3501C41.335 42.7031 40.8107 42.1782 40.1631 42.1782H20.5342C19.8866 42.1782 19.3623 42.7031 19.3623 43.3501C19.3623 43.9971 19.8866 44.522 20.5342 44.522Z" fill="#02D2B6" fill-opacity="0.6"/>
<path d="M58.9717 44.522C59.6187 44.522 60.1436 43.9971 60.1436 43.3501C60.1436 42.7031 59.6187 42.1782 58.9717 42.1782H45.1436C44.496 42.1782 43.9717 42.7031 43.9717 43.3501C43.9717 43.9971 44.496 44.522 45.1436 44.522H58.9717Z" fill="#02D2B6" fill-opacity="0.6"/>
<path d="M72.0186 42.1782H63.8936C63.246 42.1782 62.7217 42.7031 62.7217 43.3501C62.7217 43.9971 63.246 44.522 63.8936 44.522H72.0186C72.6656 44.522 73.1905 43.9971 73.1905 43.3501C73.1905 42.7031 72.6656 42.1782 72.0186 42.1782Z" fill="#02D2B6" fill-opacity="0.6"/>
<path d="M20.5342 51.2483H32.7412C33.3888 51.2483 33.9131 50.7234 33.9131 50.0764C33.9131 49.4288 33.3888 48.9045 32.7412 48.9045H20.5342C19.8866 48.9045 19.3623 49.4288 19.3623 50.0764C19.3623 50.7234 19.8866 51.2483 20.5342 51.2483Z" fill="#02D2B6" fill-opacity="0.6"/>
<path d="M36.5498 50.0764C36.5498 50.7234 37.0741 51.2483 37.7217 51.2483H60.5342C61.1812 51.2483 61.7061 50.7234 61.7061 50.0764C61.7061 49.4288 61.1812 48.9045 60.5342 48.9045H37.7217C37.0741 48.9045 36.5498 49.4288 36.5498 50.0764Z" fill="#02D2B6" fill-opacity="0.6"/>
<path d="M72.0186 48.9045H65.4561C64.8085 48.9045 64.2842 49.4288 64.2842 50.0764C64.2842 50.7234 64.8085 51.2483 65.4561 51.2483H72.0186C72.6656 51.2483 73.1905 50.7234 73.1905 50.0764C73.1905 49.4288 72.6656 48.9045 72.0186 48.9045Z" fill="#02D2B6" fill-opacity="0.6"/>
<path d="M20.5342 57.9739H40.7881C41.4357 57.9739 41.96 57.449 41.96 56.802C41.96 56.155 41.4357 55.6301 40.7881 55.6301H20.5342C19.8866 55.6301 19.3623 56.155 19.3623 56.802C19.3623 57.449 19.8866 57.9739 20.5342 57.9739Z" fill="#02D2B6" fill-opacity="0.6"/>
<path d="M58.9717 55.6301H45.7686C45.121 55.6301 44.5967 56.155 44.5967 56.802C44.5967 57.449 45.121 57.9739 45.7686 57.9739H58.9717C59.6187 57.9739 60.1436 57.449 60.1436 56.802C60.1436 56.155 59.6187 55.6301 58.9717 55.6301Z" fill="#02D2B6" fill-opacity="0.6"/>
<path d="M72.0186 55.6301H63.6201C62.9725 55.6301 62.4482 56.155 62.4482 56.802C62.4482 57.449 62.9725 57.9739 63.6201 57.9739H72.0186C72.6656 57.9739 73.1905 57.449 73.1905 56.802C73.1905 56.155 72.6656 55.6301 72.0186 55.6301Z" fill="#02D2B6" fill-opacity="0.6"/>
<path d="M47.3897 62.3562H20.5342C19.8866 62.3562 19.3623 62.8805 19.3623 63.5281C19.3623 64.1751 19.8866 64.7 20.5342 64.7H47.3897C48.0373 64.7 48.5616 64.1751 48.5616 63.5281C48.5616 62.8805 48.0373 62.3562 47.3897 62.3562Z" fill="#02D2B6" fill-opacity="0.6"/>
<path d="M55.8467 62.3562H52.3701C51.7225 62.3562 51.1982 62.8805 51.1982 63.5281C51.1982 64.1751 51.7225 64.7 52.3701 64.7H55.8467C56.4937 64.7 57.0186 64.1751 57.0186 63.5281C57.0186 62.8805 56.4937 62.3562 55.8467 62.3562Z" fill="#02D2B6" fill-opacity="0.6"/>
<path d="M72.0186 62.3562H61.3154C60.6678 62.3562 60.1436 62.8805 60.1436 63.5281C60.1436 64.1751 60.6678 64.7 61.3154 64.7H72.0186C72.6656 64.7 73.1905 64.1751 73.1905 63.5281C73.1905 62.8805 72.6656 62.3562 72.0186 62.3562Z" fill="#02D2B6" fill-opacity="0.6"/>
<path d="M9.33582 25.2498H6.41895C5.77197 25.2498 5.24707 25.7747 5.24707 26.4216C5.24707 27.0686 5.77197 27.5935 6.41895 27.5935H9.33582C9.9834 27.5935 10.5077 27.0686 10.5077 26.4216C10.5077 25.7747 9.9834 25.2498 9.33582 25.2498Z" fill="#02D2B6" fill-opacity="0.6"/>
<path d="M9.33582 35.4529H6.41895C5.77197 35.4529 5.24707 35.9772 5.24707 36.6248C5.24707 37.2717 5.77197 37.7966 6.41895 37.7966H9.33582C9.9834 37.7966 10.5077 37.2717 10.5077 36.6248C10.5077 35.9772 9.9834 35.4529 9.33582 35.4529Z" fill="#02D2B6" fill-opacity="0.6"/>
<path d="M9.33582 42.1782H6.41895C5.77197 42.1782 5.24707 42.7031 5.24707 43.3501C5.24707 43.9971 5.77197 44.522 6.41895 44.522H9.33582C9.9834 44.522 10.5077 43.9971 10.5077 43.3501C10.5077 42.7031 9.9834 42.1782 9.33582 42.1782Z" fill="#02D2B6" fill-opacity="0.6"/>
<path d="M9.33582 48.9045H6.41895C5.77197 48.9045 5.24707 49.4288 5.24707 50.0764C5.24707 50.7234 5.77197 51.2483 6.41895 51.2483H9.33582C9.9834 51.2483 10.5077 50.7234 10.5077 50.0764C10.5077 49.4288 9.9834 48.9045 9.33582 48.9045Z" fill="#02D2B6" fill-opacity="0.6"/>
<path d="M9.33582 55.6301H6.41895C5.77197 55.6301 5.24707 56.155 5.24707 56.802C5.24707 57.449 5.77197 57.9739 6.41895 57.9739H9.33582C9.9834 57.9739 10.5077 57.449 10.5077 56.802C10.5077 56.155 9.9834 55.6301 9.33582 55.6301Z" fill="#02D2B6" fill-opacity="0.6"/>
<path d="M9.33582 62.3562H6.41895C5.77197 62.3562 5.24707 62.8805 5.24707 63.5281C5.24707 64.1751 5.77197 64.7 6.41895 64.7H9.33582C9.9834 64.7 10.5077 64.1751 10.5077 63.5281C10.5077 62.8805 9.9834 62.3562 9.33582 62.3562Z" fill="#02D2B6" fill-opacity="0.6"/>
</g>
<defs>
<clipPath id="clip0">
<rect width="80" height="80" fill="white"/>
</clipPath>
</defs>
</svg>
