<svg width="54" height="54" viewBox="0 0 54 54" fill="none" xmlns="http://www.w3.org/2000/svg">
<path d="M5.82835 3.03345C4.54955 3.03345 3.50928 4.07413 3.50928 5.35252C3.50928 6.63133 4.54955 7.67201 5.82835 7.67201C7.10716 7.67201 8.14784 6.63133 8.14784 5.35252C8.14784 4.07413 7.10716 3.03345 5.82835 3.03345ZM5.82835 6.09122C5.42131 6.09122 5.08966 5.75998 5.08966 5.35252C5.08966 4.94548 5.42131 4.61424 5.82835 4.61424C6.23581 4.61424 6.56705 4.94548 6.56705 5.35252C6.56705 5.75998 6.23581 6.09122 5.82835 6.09122Z" fill="#02D2B6" fill-opacity="0.6"/>
<path d="M11.7336 3.03345C10.4547 3.03345 9.41406 4.07413 9.41406 5.35252C9.41406 6.63133 10.4547 7.67201 11.7336 7.67201C13.0124 7.67201 14.0526 6.63133 14.0526 5.35252C14.0526 4.07413 13.0124 3.03345 11.7336 3.03345ZM11.7336 6.09122C11.3261 6.09122 10.9949 5.75998 10.9949 5.35252C10.9949 4.94548 11.3261 4.61424 11.7336 4.61424C12.1406 4.61424 12.4722 4.94548 12.4722 5.35252C12.4722 5.75998 12.1406 6.09122 11.7336 6.09122Z" fill="#02D2B6" fill-opacity="0.6"/>
<path d="M17.6379 3.03345C16.3591 3.03345 15.3188 4.07413 15.3188 5.35252C15.3188 6.63133 16.3591 7.67201 17.6379 7.67201C18.9167 7.67201 19.9574 6.63133 19.9574 5.35252C19.9574 4.07413 18.9167 3.03345 17.6379 3.03345ZM17.6379 6.09122C17.2309 6.09122 16.8992 5.75998 16.8992 5.35252C16.8992 4.94548 17.2309 4.61424 17.6379 4.61424C18.0454 4.61424 18.3766 4.94548 18.3766 5.35252C18.3766 5.75998 18.0454 6.09122 17.6379 6.09122Z" fill="#02D2B6" fill-opacity="0.6"/>
<path d="M53.1496 15.5908C53.5863 15.5908 53.9402 15.2369 53.9402 14.8002L53.9999 3.47799C53.9999 1.56019 52.4397 0 50.5219 0H3.4784C1.5606 0 0 1.5606 0 3.4784V41.7178C0 43.4559 1.28169 44.9003 2.94941 45.1558C3.12203 45.1826 3.29878 45.1962 3.4784 45.1962H18.8562V48.0306H16.47C14.8785 48.0306 13.5832 49.3255 13.5832 50.917V52.6247C13.5832 53.351 14.174 53.9418 14.9003 53.9418H18.6692C19.1055 53.9418 19.4594 53.5879 19.4594 53.1512C19.4594 52.7149 19.1055 52.361 18.6692 52.361H15.164V50.917C15.164 50.1968 15.7498 49.611 16.47 49.611H37.4702C38.1903 49.611 38.7762 50.1968 38.7762 50.917V52.361H23.5755C23.1392 52.361 22.7853 52.7149 22.7853 53.1512C22.7853 53.5879 23.1392 53.9418 23.5755 53.9418H39.0394C39.7658 53.9418 40.3565 53.351 40.3565 52.6247V50.917C40.3565 49.3255 39.0617 48.0306 37.4698 48.0306H35.0835V45.1962H50.4618C50.6414 45.1962 50.8181 45.1826 50.9903 45.1558C52.6585 44.9003 53.9397 43.4559 53.9397 41.7178V19.7004C53.9397 19.2637 53.5863 18.9098 53.1496 18.9098C52.7133 18.9098 52.3594 19.2637 52.3594 19.7004V37.1393H27.655V10.7504H52.3594V14.8002C52.3594 15.2369 52.7133 15.5908 53.1496 15.5908ZM1.63888 10.7504H26.0742V37.0825H1.63888V10.7504ZM33.5032 48.0306H20.437V45.1962H33.5032V48.0306ZM52.3594 38.7201V41.7178C52.3594 42.6987 51.6112 43.5082 50.6554 43.6059C50.5915 43.6121 50.5273 43.6154 50.4618 43.6154H3.4784C3.4129 43.6154 3.34821 43.6121 3.28477 43.6059C2.32896 43.5082 1.58079 42.6987 1.58079 41.7178V38.7201H52.3594ZM26.8648 9.16958H1.63888V3.47799C1.63888 2.43196 2.49005 1.58079 3.53649 1.58079H50.4618C51.5082 1.58079 52.3594 2.43196 52.3594 3.4784V9.16958H26.8648Z" fill="#02D2B6" fill-opacity="0.6"/>
<path d="M4.9471 13.9H8.9512C9.3875 13.9 9.74139 13.5465 9.74139 13.1098C9.74139 12.6735 9.3875 12.3196 8.9512 12.3196H4.9471C4.51039 12.3196 4.15649 12.6735 4.15649 13.1098C4.15649 13.5465 4.51039 13.9 4.9471 13.9Z" fill="#02D2B6" fill-opacity="0.6"/>
<path d="M11.6911 13.9H13.5879C14.0242 13.9 14.3781 13.5465 14.3781 13.1098C14.3781 12.6735 14.0242 12.3196 13.5879 12.3196H11.6911C11.2544 12.3196 10.9009 12.6735 10.9009 13.1098C10.9009 13.5465 11.2544 13.9 11.6911 13.9Z" fill="#02D2B6" fill-opacity="0.6"/>
<path d="M10.9532 15.1093H8.319C7.88271 15.1093 7.52881 15.4632 7.52881 15.8999C7.52881 16.3362 7.88271 16.69 8.319 16.69H10.9532C11.39 16.69 11.7439 16.3362 11.7439 15.8999C11.7439 15.4632 11.39 15.1093 10.9532 15.1093Z" fill="#02D2B6" fill-opacity="0.6"/>
<path d="M23.3873 17.9989H20.7531C20.3168 17.9989 19.9629 18.3528 19.9629 18.7891C19.9629 19.2254 20.3168 19.5793 20.7531 19.5793H23.3873C23.824 19.5793 24.1775 19.2254 24.1775 18.7891C24.1775 18.3528 23.824 17.9989 23.3873 17.9989Z" fill="#02D2B6" fill-opacity="0.6"/>
<path d="M12.5867 15.8999C12.5867 16.3362 12.9406 16.69 13.3769 16.69H19.6992C20.1359 16.69 20.4898 16.3362 20.4898 15.8999C20.4898 15.4632 20.1359 15.1093 19.6992 15.1093H13.3769C12.9406 15.1093 12.5867 15.4632 12.5867 15.8999Z" fill="#02D2B6" fill-opacity="0.6"/>
<path d="M10.0574 18.7891C10.0574 19.2254 10.4113 19.5793 10.848 19.5793H12.2178C12.6541 19.5793 13.008 19.2254 13.008 18.7891C13.008 18.3528 12.6541 17.9989 12.2178 17.9989H10.848C10.4113 17.9989 10.0574 18.3528 10.0574 18.7891Z" fill="#02D2B6" fill-opacity="0.6"/>
<path d="M18.3294 19.5793C18.7661 19.5793 19.12 19.2254 19.12 18.7891C19.12 18.3528 18.7661 17.9989 18.3294 17.9989H14.5362C14.0995 17.9989 13.7456 18.3528 13.7456 18.7891C13.7456 19.2254 14.0995 19.5793 14.5362 19.5793H18.3294Z" fill="#02D2B6" fill-opacity="0.6"/>
<path d="M9.74139 29.0323C9.74139 28.5956 9.3875 28.2421 8.9512 28.2421H4.9471C4.51039 28.2421 4.15649 28.5956 4.15649 29.0323C4.15649 29.4686 4.51039 29.8224 4.9471 29.8224H8.9512C9.3875 29.8224 9.74139 29.4686 9.74139 29.0323Z" fill="#02D2B6" fill-opacity="0.6"/>
<path d="M11.6911 28.2421C11.2544 28.2421 10.9009 28.5956 10.9009 29.0323C10.9009 29.4686 11.2544 29.8224 11.6911 29.8224H13.5879C14.0242 29.8224 14.3781 29.4686 14.3781 29.0323C14.3781 28.5956 14.0242 28.2421 13.5879 28.2421H11.6911Z" fill="#02D2B6" fill-opacity="0.6"/>
<path d="M11.7439 31.8219C11.7439 31.3856 11.39 31.0317 10.9532 31.0317H8.319C7.88271 31.0317 7.52881 31.3856 7.52881 31.8219C7.52881 32.2586 7.88271 32.6125 8.319 32.6125H10.9532C11.39 32.6125 11.7439 32.2586 11.7439 31.8219Z" fill="#02D2B6" fill-opacity="0.6"/>
<path d="M12.2178 33.9214H10.848C10.4113 33.9214 10.0574 34.2749 10.0574 34.7116C10.0574 35.1479 10.4113 35.5018 10.848 35.5018H12.2178C12.6541 35.5018 13.008 35.1479 13.008 34.7116C13.008 34.2749 12.6541 33.9214 12.2178 33.9214Z" fill="#02D2B6" fill-opacity="0.6"/>
<path d="M23.3873 33.9214H20.7531C20.3168 33.9214 19.9629 34.2749 19.9629 34.7116C19.9629 35.1479 20.3168 35.5018 20.7531 35.5018H23.3873C23.824 35.5018 24.1775 35.1479 24.1775 34.7116C24.1775 34.2749 23.824 33.9214 23.3873 33.9214Z" fill="#02D2B6" fill-opacity="0.6"/>
<path d="M20.4898 31.8219C20.4898 31.3856 20.1359 31.0317 19.6992 31.0317H13.3769C12.9406 31.0317 12.5867 31.3856 12.5867 31.8219C12.5867 32.2586 12.9406 32.6125 13.3769 32.6125H19.6992C20.1359 32.6125 20.4898 32.2586 20.4898 31.8219Z" fill="#02D2B6" fill-opacity="0.6"/>
<path d="M18.3294 33.9214H14.5362C14.0995 33.9214 13.7456 34.2749 13.7456 34.7116C13.7456 35.1479 14.0995 35.5018 14.5362 35.5018H18.3294C18.7661 35.5018 19.12 35.1479 19.12 34.7116C19.12 34.2749 18.7661 33.9214 18.3294 33.9214Z" fill="#02D2B6" fill-opacity="0.6"/>
<path d="M4.9471 23.2006H7.15988C7.59618 23.2006 7.95007 22.8467 7.95007 22.4104C7.95007 21.9737 7.59618 21.6202 7.15988 21.6202H4.9471C4.51039 21.6202 4.15649 21.9737 4.15649 22.4104C4.15649 22.8467 4.51039 23.2006 4.9471 23.2006Z" fill="#02D2B6" fill-opacity="0.6"/>
<path d="M18.2766 22.4104C18.2766 21.9737 17.9231 21.6202 17.4864 21.6202H9.37271C8.93642 21.6202 8.58252 21.9737 8.58252 22.4104C8.58252 22.8467 8.93642 23.2006 9.37271 23.2006H17.4864C17.9231 23.2006 18.2766 22.8467 18.2766 22.4104Z" fill="#02D2B6" fill-opacity="0.6"/>
<path d="M16.8018 25.2001C16.8018 24.7638 16.4479 24.4099 16.0112 24.4099H8.319C7.88271 24.4099 7.52881 24.7638 7.52881 25.2001C7.52881 25.6368 7.88271 25.9907 8.319 25.9907H16.0112C16.4479 25.9907 16.8018 25.6368 16.8018 25.2001Z" fill="#02D2B6" fill-opacity="0.6"/>
<path d="M18.2242 25.9907H19.6991C20.1358 25.9907 20.4897 25.6368 20.4897 25.2001C20.4897 24.7638 20.1358 24.4099 19.6991 24.4099H18.2242C17.7875 24.4099 17.4336 24.7638 17.4336 25.2001C17.4336 25.6368 17.7875 25.9907 18.2242 25.9907Z" fill="#02D2B6" fill-opacity="0.6"/>
<path d="M36.1775 30.5492H31.1199C30.6832 30.5492 30.3293 30.9031 30.3293 31.3394C30.3293 31.7761 30.6832 32.1296 31.1199 32.1296H36.1775C36.6142 32.1296 36.9681 31.7761 36.9681 31.3394C36.9681 30.9031 36.6142 30.5492 36.1775 30.5492Z" fill="#02D2B6" fill-opacity="0.6"/>
<path d="M49.0331 30.5492H39.0226C38.5863 30.5492 38.2324 30.9031 38.2324 31.3394C38.2324 31.7761 38.5863 32.1296 39.0226 32.1296H49.0331C49.4698 32.1296 49.8237 31.7761 49.8237 31.3394C49.8237 30.9031 49.4698 30.5492 49.0331 30.5492Z" fill="#02D2B6" fill-opacity="0.6"/>
<path d="M36.1775 33.605H31.1199C30.6832 33.605 30.3293 33.9589 30.3293 34.3956C30.3293 34.8319 30.6832 35.1858 31.1199 35.1858H36.1775C36.6142 35.1858 36.9681 34.8319 36.9681 34.3956C36.9681 33.9589 36.6142 33.605 36.1775 33.605Z" fill="#02D2B6" fill-opacity="0.6"/>
<path d="M49.0331 33.605H39.0226C38.5863 33.605 38.2324 33.9589 38.2324 34.3956C38.2324 34.8319 38.5863 35.1858 39.0226 35.1858H49.0331C49.4698 35.1858 49.8237 34.8319 49.8237 34.3956C49.8237 33.9589 49.4698 33.605 49.0331 33.605Z" fill="#02D2B6" fill-opacity="0.6"/>
<path d="M49.8476 14.3618C49.8476 13.2358 48.9317 12.3196 47.8057 12.3196H32.3472C31.2212 12.3196 30.3049 13.2358 30.3049 14.3618V25.0652V25.0661V26.9381C30.3049 28.0641 31.2212 28.9803 32.3472 28.9803H47.8057C48.9317 28.9803 49.8476 28.0641 49.8476 26.9381V14.3618ZM48.2672 26.9381C48.2672 27.1927 48.0599 27.3996 47.8057 27.3996H32.3472C32.0925 27.3996 31.8857 27.1927 31.8857 26.9381V25.3932L37.6741 19.6076L41.6692 24.1098C41.9588 24.4365 42.4586 24.4662 42.7849 24.1766C43.1116 23.8869 43.1412 23.3876 42.8516 23.0609L42.489 22.6526L44.2754 20.8671L48.2672 25.366V26.9381ZM48.2672 22.9843L45.2255 19.5565C44.9976 19.2999 44.6701 19.1466 44.3269 19.1363C43.9821 19.1264 43.6476 19.2595 43.4049 19.5022L41.4381 21.4678L38.6242 18.2971C38.3964 18.04 38.0688 17.8868 37.7256 17.8769C37.3829 17.8674 37.0463 17.9996 36.8036 18.2423L31.8857 23.1581V14.3618C31.8857 14.1072 32.0925 13.9 32.3472 13.9H47.8057C48.0604 13.9 48.2672 14.1072 48.2672 14.3618V22.9843Z" fill="#02D2B6" fill-opacity="0.6"/>
</svg>
