<svg width="60" height="60" viewBox="0 0 60 60" fill="none" xmlns="http://www.w3.org/2000/svg">
<path d="M9.8754 23.9969C10.0272 24.1487 10.2264 24.225 10.4257 24.225C10.6249 24.225 10.8242 24.1491 10.9764 23.9969C11.2803 23.6929 11.2803 23.1999 10.9764 22.8959L9.0861 21.0057L10.9764 19.1158C11.2803 18.8114 11.2803 18.3188 10.9764 18.0148C10.6724 17.7109 10.1794 17.7109 9.8754 18.0148L7.43485 20.4554C7.28876 20.6015 7.20679 20.7995 7.20679 21.0057C7.20679 21.2122 7.28876 21.4103 7.43485 21.5563L9.8754 23.9969Z" fill="#02D2B6" fill-opacity="0.6"/>
<path d="M17.6004 21.0058L15.7101 22.8961C15.4061 23.2 15.4061 23.6931 15.7105 23.997C15.8623 24.1488 16.0615 24.2251 16.2608 24.2251C16.46 24.2251 16.6593 24.1488 16.8111 23.997L19.252 21.5561C19.556 21.2521 19.556 20.7591 19.252 20.4555L16.8111 18.0146C16.5071 17.7106 16.0145 17.7106 15.7105 18.0146C15.4061 18.3189 15.4061 18.8116 15.7105 19.1155L17.6004 21.0058Z" fill="#02D2B6" fill-opacity="0.6"/>
<path d="M12.1827 24.171C12.276 24.2075 12.3726 24.2249 12.4671 24.2249C12.778 24.2249 13.0714 24.0375 13.1919 23.7311L15.1094 18.8496C15.2668 18.4494 15.0696 17.9978 14.6695 17.8403C14.2698 17.6833 13.8177 17.8801 13.6606 18.2802L11.7428 23.1617C11.5857 23.5618 11.7825 24.0139 12.1827 24.171Z" fill="#02D2B6" fill-opacity="0.6"/>
<path d="M8.42581 28.7921H13.6701C14.0999 28.7921 14.4484 28.4435 14.4484 28.0133C14.4484 27.5836 14.0999 27.235 13.6701 27.235H8.42581C7.99565 27.235 7.64746 27.5836 7.64746 28.0133C7.64746 28.4435 7.99565 28.7921 8.42581 28.7921Z" fill="#02D2B6" fill-opacity="0.6"/>
<path d="M25.7486 27.235H16.5286C16.0988 27.235 15.7502 27.5836 15.7502 28.0133C15.7502 28.4435 16.0988 28.7921 16.5286 28.7921H25.7486C26.1788 28.7921 26.5274 28.4435 26.5274 28.0133C26.5274 27.5836 26.1788 27.235 25.7486 27.235Z" fill="#02D2B6" fill-opacity="0.6"/>
<path d="M8.42581 32.0754H10.6598C11.0895 32.0754 11.4381 31.7268 11.4381 31.2967C11.4381 30.8669 11.0895 30.5183 10.6598 30.5183H8.42581C7.99565 30.5183 7.64746 30.8669 7.64746 31.2967C7.64746 31.7268 7.99565 32.0754 8.42581 32.0754Z" fill="#02D2B6" fill-opacity="0.6"/>
<path d="M22.9007 30.5183C22.4705 30.5183 22.1223 30.8669 22.1223 31.2967C22.1223 31.7268 22.4705 32.0754 22.9007 32.0754H24.2609C24.6911 32.0754 25.0397 31.7268 25.0397 31.2967C25.0397 30.8669 24.6911 30.5183 24.2609 30.5183H22.9007Z" fill="#02D2B6" fill-opacity="0.6"/>
<path d="M20.8516 31.2967C20.8516 30.8669 20.503 30.5183 20.0732 30.5183H13.3911C12.961 30.5183 12.6128 30.8669 12.6128 31.2967C12.6128 31.7268 12.961 32.0754 13.3911 32.0754H20.0732C20.503 32.0754 20.8516 31.7268 20.8516 31.2967Z" fill="#02D2B6" fill-opacity="0.6"/>
<path d="M25.9512 31.2967C25.9512 31.7268 26.2998 32.0754 26.7295 32.0754H29.2776C29.7078 32.0754 30.0564 31.7268 30.0564 31.2967C30.0564 30.8669 29.7078 30.5183 29.2776 30.5183H26.7295C26.2998 30.5183 25.9512 30.8669 25.9512 31.2967Z" fill="#02D2B6" fill-opacity="0.6"/>
<path d="M21.7116 21.6304H24.3993C24.8295 21.6304 25.1781 21.2818 25.1781 20.8516C25.1781 20.4218 24.8295 20.0732 24.3993 20.0732H21.7116C21.2815 20.0732 20.9329 20.4218 20.9329 20.8516C20.9329 21.2818 21.2815 21.6304 21.7116 21.6304Z" fill="#02D2B6" fill-opacity="0.6"/>
<path d="M27.4096 21.6304H43.8089C44.239 21.6304 44.5872 21.2818 44.5872 20.8516C44.5872 20.4218 44.239 20.0732 43.8089 20.0732H27.4096C26.9795 20.0732 26.6309 20.4218 26.6309 20.8516C26.6309 21.2818 26.9795 21.6304 27.4096 21.6304Z" fill="#02D2B6" fill-opacity="0.6"/>
<path d="M41.3179 23.4983H34.6748C34.2451 23.4983 33.8965 23.8469 33.8965 24.277C33.8965 24.7068 34.2451 25.0554 34.6748 25.0554H41.3179C41.7477 25.0554 42.0963 24.7068 42.0963 24.277C42.0963 23.8469 41.7477 23.4983 41.3179 23.4983Z" fill="#02D2B6" fill-opacity="0.6"/>
<path d="M32.1839 23.4983H29.9004C29.4703 23.4983 29.1221 23.8469 29.1221 24.277C29.1221 24.7068 29.4703 25.0554 29.9004 25.0554H32.1839C32.6141 25.0554 32.9622 24.7068 32.9622 24.277C32.9622 23.8469 32.6141 23.4983 32.1839 23.4983Z" fill="#02D2B6" fill-opacity="0.6"/>
<path d="M21.7116 25.0554H27.3057C27.7355 25.0554 28.0841 24.7068 28.0841 24.277C28.0841 23.8469 27.7355 23.4983 27.3057 23.4983H21.7116C21.2815 23.4983 20.9329 23.8469 20.9329 24.277C20.9329 24.7068 21.2815 25.0554 21.7116 25.0554Z" fill="#02D2B6" fill-opacity="0.6"/>
<path d="M20.0829 33.7743H14.8391C14.4089 33.7743 14.0603 34.1229 14.0603 34.5526C14.0603 34.9824 14.4089 35.331 14.8391 35.331H20.0829C20.5127 35.331 20.8613 34.9824 20.8613 34.5526C20.8613 34.1229 20.5127 33.7743 20.0829 33.7743Z" fill="#02D2B6" fill-opacity="0.6"/>
<path d="M12.4547 33.7743H8.42581C7.99565 33.7743 7.64746 34.1229 7.64746 34.5526C7.64746 34.9824 7.99565 35.331 8.42581 35.331H12.4547C12.8849 35.331 13.233 34.9824 13.233 34.5526C13.233 34.1229 12.8849 33.7743 12.4547 33.7743Z" fill="#02D2B6" fill-opacity="0.6"/>
<path d="M29.5893 33.7743H22.7388C22.3086 33.7743 21.9604 34.1229 21.9604 34.5526C21.9604 34.9824 22.3086 35.331 22.7388 35.331H29.5893C30.019 35.331 30.3676 34.9824 30.3676 34.5526C30.3676 34.1229 30.019 33.7743 29.5893 33.7743Z" fill="#02D2B6" fill-opacity="0.6"/>
<path d="M38.8535 29.7753H35.1074C34.6777 29.7753 34.3291 30.1239 34.3291 30.5536C34.3291 30.9838 34.6777 31.3324 35.1074 31.3324H38.8535C39.2836 31.3324 39.6318 30.9838 39.6318 30.5536C39.6318 30.1239 39.2836 29.7753 38.8535 29.7753Z" fill="#02D2B6" fill-opacity="0.6"/>
<path d="M45.3538 31.3324H50.6419C51.0721 31.3324 51.4207 30.9838 51.4207 30.5536C51.4207 30.1239 51.0721 29.7753 50.6419 29.7753H45.3538C44.9236 29.7753 44.5754 30.1239 44.5754 30.5536C44.5754 30.9838 44.924 31.3324 45.3538 31.3324Z" fill="#02D2B6" fill-opacity="0.6"/>
<path d="M42.7095 29.7753H41.4978C41.0676 29.7753 40.719 30.1239 40.719 30.5536C40.719 30.9838 41.0676 31.3324 41.4978 31.3324H42.7095C43.1397 31.3324 43.4879 30.9838 43.4879 30.5536C43.4879 30.1239 43.1397 29.7753 42.7095 29.7753Z" fill="#02D2B6" fill-opacity="0.6"/>
<path d="M35.1074 39.8155H38.8535C39.2836 39.8155 39.6318 39.4673 39.6318 39.0371C39.6318 38.6074 39.2836 38.2588 38.8535 38.2588H35.1074C34.6777 38.2588 34.3291 38.6074 34.3291 39.0371C34.3291 39.4673 34.6777 39.8155 35.1074 39.8155Z" fill="#02D2B6" fill-opacity="0.6"/>
<path d="M45.3538 39.8155H50.6419C51.0721 39.8155 51.4207 39.4673 51.4207 39.0371C51.4207 38.6074 51.0721 38.2588 50.6419 38.2588H45.3538C44.9236 38.2588 44.5754 38.6074 44.5754 39.0371C44.5754 39.4673 44.924 39.8155 45.3538 39.8155Z" fill="#02D2B6" fill-opacity="0.6"/>
<path d="M41.4978 39.8155H42.7096C43.1398 39.8155 43.4884 39.4673 43.4884 39.0371C43.4884 38.6074 43.1398 38.2588 42.7096 38.2588H41.4978C41.0677 38.2588 40.7195 38.6074 40.7195 39.0371C40.7195 39.4673 41.0677 39.8155 41.4978 39.8155Z" fill="#02D2B6" fill-opacity="0.6"/>
<path d="M38.8535 46.7423H35.1074C34.6777 46.7423 34.3291 47.0909 34.3291 47.5207C34.3291 47.9504 34.6777 48.299 35.1074 48.299H38.8535C39.2836 48.299 39.6318 47.9504 39.6318 47.5207C39.6318 47.0909 39.2836 46.7423 38.8535 46.7423Z" fill="#02D2B6" fill-opacity="0.6"/>
<path d="M50.6419 46.7423H45.3538C44.9236 46.7423 44.5754 47.0909 44.5754 47.5207C44.5754 47.9504 44.9236 48.299 45.3538 48.299H50.6419C51.0721 48.299 51.4207 47.9504 51.4207 47.5207C51.4207 47.0909 51.0721 46.7423 50.6419 46.7423Z" fill="#02D2B6" fill-opacity="0.6"/>
<path d="M42.7095 46.7423H41.4978C41.0676 46.7423 40.719 47.0909 40.719 47.5207C40.719 47.9504 41.0676 48.299 41.4978 48.299H42.7095C43.1397 48.299 43.4879 47.9504 43.4879 47.5207C43.4879 47.0909 43.1397 46.7423 42.7095 46.7423Z" fill="#02D2B6" fill-opacity="0.6"/>
<path d="M53.5146 4.61707H7.17626C5.28721 4.61707 3.75 6.15387 3.75 8.04333V45.7095C3.75 47.5986 5.28721 49.1354 7.17626 49.1354H10.1058C10.5356 49.1354 10.8842 48.7872 10.8842 48.3571C10.8842 47.9273 10.5356 47.5787 10.1058 47.5787H7.17626C6.1455 47.5787 5.3071 46.7403 5.3071 45.7095V42.7565H33.668V44.0981H33.0508C32.2063 44.0981 31.5197 44.7847 31.5197 45.6292V47.5787H14.8388C14.409 47.5787 14.0604 47.9273 14.0604 48.3571C14.0604 48.7872 14.409 49.1354 14.8388 49.1354H22.3236V51.9274H19.9731C18.4051 51.9274 17.1296 53.2033 17.1296 54.7709V56.4526C17.1296 57.168 17.7115 57.75 18.427 57.75H42.2043C42.9197 57.75 43.5016 57.168 43.5016 56.4526V54.7709C43.5016 53.2033 42.2262 51.9274 40.6581 51.9274H38.3077V50.9433H52.6989C53.543 50.9433 54.2297 50.2567 54.2297 49.4122V49.0457C55.747 48.6935 56.8812 47.332 56.8812 45.7095L56.9401 8.04293C56.9405 6.15387 55.4037 4.61707 53.5146 4.61707ZM33.0768 40.9031V37.1717H52.673V40.9031H33.0768ZM35.2247 35.6146V33.9767H50.5246V35.6146H35.2247ZM50.5246 42.4598V44.0981H35.2247V42.4598H50.5246ZM23.8803 49.1354H31.5197V49.4126C31.5197 50.2567 32.2063 50.9433 33.0508 50.9433H36.751V51.9274H23.8803V49.1354ZM40.6585 53.4845C41.3679 53.4845 41.945 54.0615 41.945 54.7709V56.1933H18.6863V54.7709C18.6863 54.0615 19.2638 53.4845 19.9731 53.4845H40.6585ZM52.673 49.3862H33.0768V45.6552H52.673V49.3862ZM55.3245 45.7095C55.3245 46.4635 54.8749 47.1132 54.2301 47.4083V45.6288C54.2301 44.7847 53.543 44.0981 52.6989 44.0981H52.0817V42.7565H55.3245V45.7095ZM55.3245 41.1998H54.2045C54.2203 41.1117 54.2301 37.1457 54.2301 37.1457C54.2301 36.3012 53.543 35.6146 52.6989 35.6146H52.0817V33.9767H52.6989C53.543 33.9767 54.2301 33.2897 54.2301 32.4456V28.6622C54.2301 27.8181 53.543 27.1311 52.6989 27.1311H48.302C47.8718 27.1311 47.5236 27.4797 47.5236 27.9098C47.5236 28.3396 47.8718 28.6882 48.302 28.6882H52.673V32.4196H33.0768V28.6882H43.4582C43.8884 28.6882 44.2366 28.3396 44.2366 27.9098C44.2366 27.4797 43.8884 27.1311 43.4582 27.1311H33.0508C32.2063 27.1311 31.5197 27.8181 31.5197 28.6622V32.4456C31.5197 33.2897 32.2063 33.9767 33.0508 33.9767H33.668V35.6146H33.0508C32.2063 35.6146 31.5197 36.3016 31.5197 37.1457C31.5197 37.1457 31.5294 41.1117 31.5452 41.1998H5.3071V15.2063H55.3245V41.1998ZM55.3245 13.6492H5.36432V8.04293C5.36432 7.01257 6.20272 6.17416 7.23348 6.17416H53.4554C54.4861 6.17416 55.3245 7.01257 55.3245 8.04333V13.6492Z" fill="#02D2B6" fill-opacity="0.6"/>
<path d="M9.49109 7.6051C8.23146 7.6051 7.20679 8.62978 7.20679 9.88942C7.20679 11.1491 8.23146 12.1741 9.49109 12.1741C10.7507 12.1741 11.7758 11.1491 11.7758 9.88942C11.7758 8.62978 10.7507 7.6051 9.49109 7.6051ZM9.49109 10.617C9.09015 10.617 8.76348 10.2908 8.76348 9.88942C8.76348 9.48847 9.09015 9.1618 9.49109 9.1618C9.89244 9.1618 10.2187 9.48847 10.2187 9.88942C10.2187 10.2908 9.89244 10.617 9.49109 10.617Z" fill="#02D2B6" fill-opacity="0.6"/>
<path d="M15.3074 7.6051C14.0478 7.6051 13.0227 8.62978 13.0227 9.88942C13.0227 11.1491 14.0478 12.1741 15.3074 12.1741C16.5671 12.1741 17.5918 11.1491 17.5918 9.88942C17.5918 8.62978 16.5667 7.6051 15.3074 7.6051ZM15.3074 10.617C14.9061 10.617 14.5798 10.2908 14.5798 9.88942C14.5798 9.48847 14.9061 9.1618 15.3074 9.1618C15.7084 9.1618 16.0351 9.48847 16.0351 9.88942C16.0351 10.2908 15.7084 10.617 15.3074 10.617Z" fill="#02D2B6" fill-opacity="0.6"/>
<path d="M21.1237 7.6051C19.864 7.6051 18.8394 8.62978 18.8394 9.88942C18.8394 11.1491 19.864 12.1741 21.1237 12.1741C22.3833 12.1741 23.4084 11.1491 23.4084 9.88942C23.4084 8.62978 22.3833 7.6051 21.1237 7.6051ZM21.1237 10.617C20.7227 10.617 20.396 10.2908 20.396 9.88942C20.396 9.48847 20.7227 9.1618 21.1237 9.1618C21.525 9.1618 21.8513 9.48847 21.8513 9.88942C21.8513 10.2908 21.525 10.617 21.1237 10.617Z" fill="#02D2B6" fill-opacity="0.6"/>
</svg>
