<svg width="80" height="80" viewBox="0 0 80 80" fill="none" xmlns="http://www.w3.org/2000/svg">
<path d="M14.4232 10.661C14.4232 8.49365 12.6605 6.73096 10.4932 6.73096C8.32581 6.73096 6.5625 8.49365 6.5625 10.661C6.5625 12.8284 8.32581 14.5917 10.4926 14.5917C12.6599 14.5917 14.4232 12.8284 14.4232 10.661ZM10.4932 12.2479C9.61792 12.2479 8.90625 11.5356 8.90625 10.661C8.90625 9.78638 9.61792 9.07471 10.4926 9.07471C11.3678 9.07471 12.0795 9.78638 12.0795 10.661C12.0795 11.5356 11.3678 12.2479 10.4932 12.2479Z" fill="#02D2B6" fill-opacity="0.6"/>
<path d="M19.8304 14.5917C21.9978 14.5917 23.7611 12.8284 23.7611 10.661C23.7611 8.49365 21.9978 6.73096 19.8304 6.73096C17.6637 6.73096 15.9004 8.49365 15.9004 10.661C15.9004 12.8284 17.6631 14.5917 19.8304 14.5917ZM19.8304 9.07471C20.7057 9.07471 21.4174 9.78638 21.4174 10.661C21.4174 11.5356 20.7057 12.2479 19.8304 12.2479C18.9558 12.2479 18.2441 11.5356 18.2441 10.661C18.2441 9.78638 18.9558 9.07471 19.8304 9.07471Z" fill="#02D2B6" fill-opacity="0.6"/>
<path d="M29.168 14.5917C31.3347 14.5917 33.098 12.8284 33.098 10.661C33.098 8.49365 31.3347 6.73096 29.168 6.73096C27.0006 6.73096 25.2373 8.49365 25.2373 10.661C25.2373 12.8284 27.0006 14.5917 29.168 14.5917ZM29.168 9.07471C30.0426 9.07471 30.7543 9.78638 30.7543 10.661C30.7543 11.5356 30.0426 12.2479 29.168 12.2479C28.2927 12.2479 27.5811 11.5356 27.5811 10.661C27.5811 9.78638 28.2927 9.07471 29.168 9.07471Z" fill="#02D2B6" fill-opacity="0.6"/>
<path d="M42.1357 11.833H70.677C71.3246 11.833 71.8489 11.3087 71.8489 10.6611C71.8489 10.0142 71.3246 9.48926 70.677 9.48926H42.1357C41.4882 9.48926 40.9639 10.0142 40.9639 10.6611C40.9639 11.3087 41.4882 11.833 42.1357 11.833Z" fill="#02D2B6" fill-opacity="0.6"/>
<path d="M75.1068 2.5H4.89319C2.18689 2.5 0 4.70337 0 7.39319V72.5885C0 75.2869 2.19543 77.4817 4.89319 77.4817H75.1068C77.8052 77.4817 80 75.2863 80 72.5885V7.39319C80 4.69482 77.8046 2.5 75.1068 2.5V2.5ZM75.1068 75.1379H4.89319C3.48755 75.1379 2.34375 73.9941 2.34375 72.5885V18.8226H8.87634C9.52393 18.8226 10.0482 18.2977 10.0482 17.6508C10.0482 17.0032 9.52393 16.4789 8.87634 16.4789H2.34375V7.39319C2.34375 5.98755 3.48755 4.84375 4.89319 4.84375H75.1068C76.5125 4.84375 77.6562 5.98755 77.6562 7.39319V16.4789H13.2513C12.6044 16.4789 12.0795 17.0032 12.0795 17.6508C12.0795 18.2977 12.6044 18.8226 13.2513 18.8226H77.6562V72.5885C77.6562 73.9941 76.5125 75.1379 75.1068 75.1379Z" fill="#02D2B6" fill-opacity="0.6"/>
<path d="M28.2269 25.4772C26.7608 23.7603 24.1076 23.7627 22.644 25.4772L11.9177 38.0382C10.9399 39.1839 10.7586 40.7867 11.4563 42.1221L15.2301 49.345C14.0081 49.9639 13.1689 51.2322 13.1689 52.6928V53.5918C13.1689 55.6597 14.8516 57.3418 16.9189 57.3418H16.947V64.9688C16.947 67.9021 19.3328 70.2886 22.2662 70.2886H28.6041C31.5374 70.2886 33.9239 67.9021 33.9239 64.9688V64.0941C33.9239 63.4472 33.399 62.9223 32.752 62.9223C32.1044 62.9223 31.5802 63.4472 31.5802 64.0941V64.9688C31.5802 66.61 30.2453 67.9449 28.6041 67.9449H22.2662C20.6256 67.9449 19.2907 66.61 19.2907 64.9688V57.3418H31.5802V60.0774C31.5802 60.725 32.1051 61.2493 32.752 61.2493C33.399 61.2493 33.9239 60.725 33.9239 60.0774V57.3418H33.9514C36.0192 57.3418 37.7014 55.6597 37.7014 53.5918V52.6928C37.7014 51.2322 36.8621 49.9639 35.6402 49.345L39.4146 42.1215C40.1123 40.7867 39.931 39.1839 38.9526 38.0382L28.2269 25.4772ZM25.2203 37.5725C25.2899 37.586 25.3619 37.5927 25.4351 37.5927C25.509 37.5927 25.581 37.586 25.6506 37.5725C26.6455 37.6806 27.4224 38.5253 27.4224 39.5482C27.4224 40.6438 26.5307 41.5349 25.4351 41.5349C24.3402 41.5349 23.4484 40.6438 23.4484 39.5482C23.4484 38.5253 24.2254 37.6806 25.2203 37.5725ZM35.3582 53.5912C35.3582 54.367 34.7271 54.9981 33.9514 54.9981H16.9195C16.1438 54.9981 15.5127 54.367 15.5127 53.5912V52.6928C15.5127 51.917 16.1438 51.2865 16.9195 51.2865H33.9514C34.7271 51.2865 35.3582 51.917 35.3582 52.6928V53.5912ZM37.3376 41.0363L33.2061 48.9428H17.6647L13.5333 41.0363C13.2812 40.5541 13.3471 39.9743 13.7005 39.5605L24.2633 27.1899V35.3783C22.4432 35.8904 21.1047 37.5658 21.1047 39.5482C21.1047 41.9359 23.0474 43.8787 25.4351 43.8787C27.8234 43.8787 29.7662 41.9359 29.7662 39.5482C29.7662 37.5658 28.4277 35.8904 26.607 35.3783V27.1899L37.1704 39.5605C37.5238 39.9743 37.5897 40.5541 37.3376 41.0363Z" fill="#02D2B6" fill-opacity="0.6"/>
<path d="M58.479 25.443C57.4451 24.4884 55.8252 24.489 54.7919 25.443C50.8771 29.0569 44.3091 35.8965 44.3091 41.0991C44.3091 44.0276 45.3668 46.8462 47.2241 49.0508C45.5872 49.453 44.3689 50.9331 44.3689 52.6928V53.5912C44.3689 55.6591 46.051 57.3418 48.1195 57.3418H48.147V64.9688C48.147 67.9015 50.5328 70.288 53.4662 70.288H59.8041C62.7374 70.288 65.1239 67.9021 65.1239 64.9688V64.0941C65.1239 63.4465 64.5996 62.9223 63.952 62.9223C63.3044 62.9223 62.7802 63.4465 62.7802 64.0941V64.9688C62.7802 66.6094 61.4453 67.9442 59.8041 67.9442H53.4662C51.8256 67.9442 50.4907 66.6094 50.4907 64.9688V57.3418H62.7802V60.0774C62.7802 60.7244 63.3044 61.2493 63.952 61.2493C64.5996 61.2493 65.1239 60.7244 65.1239 60.0774V57.3418H65.1514C67.2192 57.3418 68.902 55.6591 68.902 53.5912V52.6928C68.902 50.9331 67.6837 49.453 66.0468 49.0508C67.9041 46.8462 68.9612 44.0276 68.9612 41.0991C68.9612 35.8965 62.3938 29.0569 58.479 25.443ZM56.3818 27.1654C56.5265 27.0318 56.7444 27.0318 56.889 27.1654C61.5918 31.5069 66.6174 37.4468 66.6174 41.0991C66.6174 44.1509 65.1996 47.0556 62.8064 48.9422H50.4645C48.0713 47.0556 46.6528 44.1509 46.6528 41.0991C46.6528 37.4468 51.6785 31.5069 56.3818 27.1654ZM66.5582 52.6928V53.5912C66.5582 54.367 65.9271 54.9981 65.1514 54.9981H48.1195C47.3438 54.9981 46.7126 54.367 46.7126 53.5912V52.6928C46.7126 51.917 47.3438 51.2865 48.1195 51.2865H65.1514C65.9271 51.2865 66.5582 51.917 66.5582 52.6928Z" fill="#02D2B6" fill-opacity="0.6"/>
</svg>
