<svg width="197" height="55" viewBox="0 0 197 55" fill="none" xmlns="http://www.w3.org/2000/svg">
<path d="M33.4347 31.0309C33.4347 31.5083 33.606 31.9079 33.9485 32.2297C34.3014 32.5514 34.7684 32.8161 35.3497 33.0237C35.9412 33.2209 36.6211 33.3662 37.3891 33.4596C38.1571 33.5426 38.9563 33.5841 39.7867 33.5841C40.6585 33.5841 41.4784 33.5374 42.2464 33.444C43.0144 33.3402 43.6839 33.1897 44.2547 32.9925C44.8256 32.7849 45.2771 32.5203 45.6092 32.1985C45.9413 31.8768 46.1074 31.4876 46.1074 31.0309V18.9187L50.2486 19.2301V32.0273C50.2486 32.5877 50.1085 33.1015 49.8282 33.5686C49.5584 34.0356 49.1795 34.456 48.6917 34.8296C48.204 35.1928 47.6279 35.5094 46.9637 35.7792C46.2994 36.0491 45.5781 36.2723 44.7996 36.4487C44.0316 36.6251 43.2168 36.7549 42.3554 36.8379C41.5043 36.9313 40.6481 36.978 39.7867 36.978C38.9148 36.978 38.0534 36.9313 37.2023 36.8379C36.3512 36.7549 35.5364 36.6251 34.7581 36.4487C33.99 36.2723 33.2739 36.0491 32.6096 35.7792C31.9453 35.5094 31.3694 35.1928 30.8815 34.8296C30.3937 34.456 30.0097 34.0408 29.7295 33.5841C29.4596 33.1171 29.3247 32.5981 29.3247 32.0273V19.2301L33.4347 18.9187V31.0309ZM69.1735 18.7941C70.7719 18.7941 72.2146 18.9291 73.5015 19.1989C74.7885 19.4584 75.8835 19.8528 76.7864 20.3821C77.6894 20.9115 78.3848 21.5705 78.8726 22.3593C79.3604 23.1377 79.6044 24.0459 79.6044 25.0838V36.6667H75.5254V26.0179C75.5254 25.1564 75.3386 24.4559 74.965 23.9161C74.5913 23.3661 74.0983 22.9353 73.486 22.624C72.8736 22.3126 72.1782 22.0999 71.3998 21.9856C70.6214 21.8715 69.8274 21.8144 69.0178 21.8144V36.6667H65.2503V21.8144C64.5756 21.8144 63.927 21.8715 63.3043 21.9856C62.6918 22.0894 62.1107 22.2347 61.5606 22.4216C61.0105 22.6084 60.4915 22.8212 60.0037 23.0599C59.516 23.2986 59.0645 23.5477 58.6493 23.8072V36.6667H54.5703V23.8072C54.5289 23.475 54.4303 23.1948 54.2745 22.9665C54.1293 22.7381 53.9684 22.5513 53.792 22.406C53.5948 22.2296 53.3768 22.0842 53.1381 21.9701L54.8818 18.9187C55.2657 19.0536 55.6446 19.2301 56.0182 19.448C56.34 19.6348 56.6773 19.8787 57.0302 20.1797C57.3831 20.4807 57.6944 20.8491 57.9643 21.2851C58.8049 20.7765 59.6146 20.3614 60.3929 20.0396C61.1714 19.7075 61.9913 19.4532 62.8528 19.2768C63.7142 19.0899 64.6535 18.9654 65.6706 18.9031C66.6878 18.8305 67.8554 18.7941 69.1735 18.7941ZM87.0085 29.4429C87.0085 30.0242 87.0866 30.5275 87.242 30.953C87.3982 31.3682 87.6103 31.7263 87.8805 32.0273C88.1507 32.3179 88.4568 32.5566 88.7988 32.7434C89.1519 32.9302 89.5201 33.0756 89.9043 33.1793C90.2885 33.2728 90.6775 33.3402 91.0721 33.3817C91.4667 33.4129 91.8453 33.4284 92.2088 33.4284C93.5264 33.4284 94.7252 33.2572 95.8045 32.9147C96.8846 32.5722 97.8443 32.1518 98.6852 31.6536V18.9187L102.702 19.2301V37.4451C102.702 38.1819 102.546 38.867 102.235 39.5001C101.923 40.1333 101.472 40.6782 100.88 41.1348C100.288 41.6018 99.562 41.9651 98.7003 42.2246C97.8387 42.4841 96.8583 42.6138 95.7583 42.6138V39.9049C96.1735 39.9049 96.5569 39.8634 96.9101 39.7803C97.2632 39.6973 97.5693 39.5675 97.8283 39.3912C98.0985 39.225 98.3058 39.0123 98.4517 38.7528C98.6071 38.5037 98.6852 38.2131 98.6852 37.881V34.6117C98.1974 34.9126 97.6992 35.1876 97.1906 35.4367C96.6925 35.6858 96.168 35.9038 95.618 36.0906C95.068 36.2671 94.4917 36.4072 93.8898 36.511C93.288 36.6148 92.6551 36.6667 91.9903 36.6667C90.3818 36.6667 89.0068 36.5369 87.8646 36.2774C86.7231 36.0076 85.7841 35.6132 85.0468 35.0942C84.3206 34.5649 83.7858 33.9111 83.4438 33.1326C83.1011 32.3542 82.9297 31.446 82.9297 30.4081V19.2301L87.0085 18.9187V29.4429Z" fill="#02D2B6"/>
<path d="M116.209 18.9187C117.444 18.9187 118.648 18.9965 119.82 19.1522C120.994 19.2975 122.047 19.5518 122.981 19.9151C123.915 20.268 124.683 20.7506 125.285 21.363C125.887 21.9753 126.245 22.7381 126.359 23.6515L122.747 24.6479C122.747 24.1082 122.561 23.6619 122.187 23.309C121.823 22.9458 121.336 22.6655 120.723 22.4683C120.122 22.2607 119.427 22.1154 118.637 22.0324C117.848 21.9494 117.039 21.9079 116.209 21.9079C115.409 21.9079 114.615 21.9494 113.827 22.0324C113.048 22.1051 112.347 22.2452 111.725 22.4528C111.113 22.65 110.615 22.925 110.23 23.2778C109.857 23.6307 109.67 24.0874 109.67 24.6479V26.5472H126.359V31.9339C126.359 32.5462 126.224 33.0911 125.955 33.5686C125.685 34.0356 125.311 34.4455 124.833 34.7984C124.356 35.1409 123.791 35.4367 123.136 35.6858C122.493 35.9246 121.792 36.1166 121.035 36.2619C120.287 36.4072 119.499 36.511 118.668 36.5732C117.848 36.6355 117.029 36.6667 116.209 36.6667C114.953 36.6667 113.738 36.594 112.566 36.4487C111.393 36.293 110.34 36.0387 109.405 35.6858C108.471 35.3226 107.703 34.8399 107.101 34.238C106.51 33.6256 106.162 32.8576 106.058 31.9339L109.67 30.9375C109.67 31.5083 109.857 31.9702 110.23 32.3231C110.615 32.676 111.113 32.951 111.725 33.1482C112.347 33.3454 113.048 33.4803 113.827 33.553C114.615 33.6153 115.409 33.6464 116.209 33.6464C117.039 33.6464 117.848 33.6101 118.637 33.5374C119.427 33.4544 120.122 33.3143 120.723 33.1171C121.336 32.9095 121.823 32.6344 122.187 32.2919C122.561 31.9391 122.747 31.4876 122.747 30.9375V29.0382H106.058V23.6515C106.058 23.0391 106.193 22.4995 106.462 22.0324C106.733 21.555 107.101 21.1449 107.568 20.8025C108.046 20.4496 108.606 20.1538 109.25 19.9151C109.893 19.666 110.588 19.4688 111.336 19.3235C112.093 19.1782 112.882 19.0744 113.703 19.0121C114.532 18.9498 115.368 18.9187 116.209 18.9187ZM139.617 18.6385C140.489 18.6385 141.356 18.68 142.217 18.763C143.089 18.846 143.925 18.981 144.723 19.1678C145.523 19.3546 146.271 19.5881 146.966 19.8684C147.661 20.1486 148.263 20.4859 148.772 20.8803C149.291 21.2747 149.695 21.7314 149.986 22.2504C150.277 22.7589 150.422 23.3297 150.422 23.9629V32.0273C150.422 32.5877 150.277 33.1015 149.986 33.5686C149.695 34.0356 149.291 34.456 148.772 34.8296C148.263 35.1928 147.661 35.5094 146.966 35.7793C146.271 36.0492 145.523 36.2723 144.723 36.4487C143.925 36.6251 143.089 36.7549 142.217 36.8379C141.345 36.9313 140.479 36.978 139.617 36.978C138.756 36.978 137.889 36.9313 137.018 36.8379C136.156 36.7549 135.326 36.6251 134.527 36.4487C133.727 36.2723 132.98 36.0492 132.285 35.7793C131.6 35.5094 130.997 35.1928 130.478 34.8296C129.97 34.456 129.57 34.0408 129.28 33.5841C128.989 33.1171 128.844 32.5981 128.844 32.0273V23.9629C128.844 23.3297 128.989 22.7589 129.28 22.2504C129.57 21.7314 129.97 21.2747 130.478 20.8803C130.997 20.4859 131.6 20.1486 132.285 19.8684C132.98 19.5881 133.727 19.3546 134.527 19.1678C135.326 18.981 136.156 18.846 137.018 18.763C137.889 18.68 138.756 18.6385 139.617 18.6385ZM132.799 31.0309C132.799 31.5083 132.996 31.9235 133.39 32.2764C133.795 32.6189 134.319 32.9095 134.962 33.1482C135.606 33.3765 136.332 33.5478 137.142 33.662C137.962 33.7761 138.787 33.8332 139.617 33.8332C140.489 33.8332 141.33 33.771 142.139 33.6464C142.959 33.5219 143.686 33.3454 144.319 33.1171C144.952 32.8784 145.455 32.5877 145.829 32.2452C146.213 31.8923 146.405 31.4876 146.405 31.0309V24.5545C146.405 24.1082 146.213 23.7086 145.829 23.3557C145.455 22.9925 144.952 22.6914 144.319 22.4528C143.686 22.2037 142.959 22.0168 142.139 21.8922C141.33 21.7574 140.489 21.6898 139.617 21.6898C138.787 21.6898 137.962 21.7522 137.142 21.8767C136.332 21.9908 135.606 22.1673 134.962 22.406C134.319 22.6448 133.795 22.9458 133.39 23.309C132.996 23.6619 132.799 24.077 132.799 24.5545V31.0309ZM161.345 15.7116C160.919 15.7116 160.53 15.7531 160.177 15.8362C159.824 15.9192 159.513 16.0489 159.243 16.2254C158.983 16.3914 158.781 16.6042 158.636 16.8636C158.49 17.1128 158.418 17.4034 158.418 17.7355V18.7007H162.434V21.3162H158.418V36.6667H154.37V21.3162H151.848V18.7007H154.37V18.1714C154.37 17.4345 154.525 16.7495 154.837 16.1164C155.149 15.4833 155.6 14.9384 156.191 14.4817C156.793 14.0146 157.525 13.6514 158.386 13.3919C159.248 13.1325 160.234 13.0027 161.345 13.0027V15.7116ZM170.119 18.7007H174.073V21.3162H170.119V36.6667H166.413V21.3162H163.487V18.7007H166.413V13.283H170.119V18.7007Z" fill="#FBFBFB"/>
<path d="M8.20218 43.9602V44.3009L7.65219 44.4743L6.23335 48.0254H5.42828L4.21668 44.839L2.98117 48.0254H2.16813L0.73335 44.4743L0.18335 44.3009V43.9602H2.0406V44.3009L1.45074 44.4743L2.63045 47.4873L3.83407 44.289H4.67103L5.88262 47.4814L7.05436 44.4743L6.46451 44.3009V43.9602H8.20218ZM15.3582 45.0183H14.8879L14.6807 44.3906H11.9706V45.7656H13.5568L13.6764 45.3053H14.1148V46.6564H13.6764L13.5568 46.196H11.9706V47.5949H14.6807L14.8879 46.9074H15.3582V48.0254H10.6952V47.6966L11.2851 47.5172V44.4743L10.6952 44.3009V43.9602H15.3582V45.0183ZM18.0874 47.6966L18.6772 47.5112V44.4743L18.0874 44.3009V43.9602H21.3316C21.8152 43.9602 22.1711 44.0478 22.3997 44.2232C22.6335 44.3946 22.7504 44.6377 22.7504 44.9526C22.7504 45.2276 22.6733 45.4507 22.5192 45.6221C22.3704 45.7895 22.1552 45.9011 21.8736 45.9569C22.1711 45.9928 22.405 46.0944 22.575 46.2618C22.7451 46.4252 22.8301 46.6623 22.8301 46.9732C22.8301 47.3199 22.7132 47.583 22.4794 47.7623C22.2456 47.9377 21.9001 48.0254 21.4432 48.0254H18.0874V47.6966ZM21.1801 45.7656C21.4883 45.7656 21.7062 45.7138 21.8337 45.6102C21.9666 45.5026 22.033 45.3252 22.033 45.0781C22.033 44.835 21.9719 44.6596 21.8497 44.552C21.7275 44.4444 21.5255 44.3906 21.2439 44.3906H19.3627V45.7656H21.1801ZM21.3076 47.5949C21.5893 47.5949 21.7939 47.5411 21.9214 47.4335C22.0489 47.3219 22.1127 47.1426 22.1127 46.8955C22.1127 46.6444 22.0463 46.4651 21.9134 46.3574C21.7806 46.2498 21.5574 46.196 21.2439 46.196H19.3627V47.5949H21.3076ZM32.5885 43.9602C33.2953 43.9602 33.8771 44.1136 34.3342 44.4205C34.7912 44.7274 35.0197 45.2475 35.0197 45.9808C35.0197 46.7261 34.7912 47.2542 34.3342 47.5651C33.8771 47.8719 33.2953 48.0254 32.5885 48.0254H29.7269V47.6966L30.4443 47.5112V44.4743L29.7269 44.3009V43.9602H32.5885ZM31.1298 44.3906V47.5949H32.4212C32.8197 47.5949 33.1545 47.5511 33.4255 47.4634C33.6965 47.3718 33.909 47.2084 34.0632 46.9732C34.2226 46.7341 34.3023 46.4033 34.3023 45.9808C34.3023 45.5663 34.2226 45.2435 34.0632 45.0123C33.909 44.7772 33.6965 44.6158 33.4255 44.5281C33.1545 44.4364 32.8197 44.3906 32.4212 44.3906H31.1298ZM42.327 45.0183H41.8568L41.6495 44.3906H38.9394V45.7656H40.5256L40.6452 45.3053H41.0836V46.6564H40.6452L40.5256 46.196H38.9394V47.5949H41.6495L41.8568 46.9074H42.327V48.0254H37.664V47.6966L38.2539 47.5172V44.4743L37.664 44.3009V43.9602H42.327V45.0183ZM50.4047 43.9602V44.3009L49.8547 44.4743L48.0533 48.0254H47.2004L45.3989 44.4743L44.8489 44.3009V43.9602H46.7221V44.3009L46.1323 44.4743L47.6866 47.6069L49.2489 44.4743L48.6591 44.3009V43.9602H50.4047ZM57.6096 45.0183H57.1393L56.932 44.3906H54.2219V45.7656H55.8081L55.9277 45.3053H56.3661V46.6564H55.9277L55.8081 46.196H54.2219V47.5949H56.932L57.1393 46.9074H57.6096V48.0254H52.9465V47.6966L53.5364 47.5172V44.4743L52.9465 44.3009V43.9602H57.6096V45.0183ZM62.204 44.3009L61.6141 44.4743V47.5949H64.1888L64.396 46.9074H64.8663V48.0254H60.3388V47.6966L60.9286 47.5172V44.4743L60.3388 44.3009V43.9602H62.204V44.3009ZM69.7969 43.8884C70.6047 43.8884 71.2344 44.0638 71.6861 44.4145C72.1378 44.7613 72.3636 45.2873 72.3636 45.9928C72.3636 46.6982 72.1378 47.2263 71.6861 47.577C71.2344 47.9237 70.6047 48.0971 69.7969 48.0971C68.9892 48.0971 68.3595 47.9237 67.9078 47.577C67.4561 47.2263 67.2303 46.6982 67.2303 45.9928C67.2303 45.2873 67.4561 44.7613 67.9078 44.4145C68.3595 44.0638 68.9892 43.8884 69.7969 43.8884ZM69.7969 44.3308C69.3665 44.3308 69.0158 44.3846 68.7447 44.4922C68.4791 44.5998 68.2798 44.7752 68.1469 45.0183C68.0141 45.2614 67.9476 45.5863 67.9476 45.9928C67.9476 46.3993 68.0141 46.7241 68.1469 46.9672C68.2798 47.2103 68.4791 47.3857 68.7447 47.4933C69.0158 47.6009 69.3665 47.6547 69.7969 47.6547C70.2274 47.6547 70.5754 47.6009 70.8411 47.4933C71.1121 47.3857 71.3141 47.2103 71.4469 46.9672C71.5798 46.7241 71.6462 46.3993 71.6462 45.9928C71.6462 45.5863 71.5798 45.2614 71.4469 45.0183C71.3141 44.7752 71.1121 44.5998 70.8411 44.4922C70.5754 44.3846 70.2274 44.3308 69.7969 44.3308ZM76.2817 46.4112V47.5112L76.8715 47.6966V48.0254H75.0063V47.6966L75.5962 47.5112V44.4743L75.0063 44.3009V43.9602H78.1788C78.6942 43.9602 79.0848 44.0638 79.3505 44.271C79.6162 44.4783 79.7492 44.7832 79.7492 45.1857C79.7492 45.5882 79.6083 45.8931 79.3266 46.1004C79.0503 46.3076 78.6438 46.4112 78.107 46.4112H76.2817ZM79.0317 45.1857C79.0317 44.9067 78.9573 44.7055 78.8085 44.5819C78.665 44.4544 78.4338 44.3906 78.115 44.3906H76.2817V45.9808H78.0353C78.3913 45.9808 78.6464 45.919 78.8005 45.7955C78.9547 45.6719 79.0317 45.4687 79.0317 45.1857ZM88.3077 44.4743V47.5172L88.8975 47.6966V48.0254H87.0722V47.6966L87.6222 47.5172V44.3547L85.8128 47.5172H85.2787L83.4613 44.3547V47.5172L84.0113 47.6966V48.0254H82.2975V47.6966L82.8874 47.5172V44.4743L82.2975 44.3009V43.9602H83.9794L85.6135 46.8477L87.2475 43.9602H88.8975V44.3009L88.3077 44.4743ZM96.3138 45.0183H95.8435L95.6362 44.3906H92.9261V45.7656H94.5123L94.6319 45.3053H95.0703V46.6564H94.6319L94.5123 46.196H92.9261V47.5949H95.6362L95.8435 46.9074H96.3138V48.0254H91.6507V47.6966L92.2406 47.5172V44.4743L91.6507 44.3009V43.9602H96.3138V45.0183ZM104.687 43.9602V44.3009L104.097 44.4743V48.0254H103.284L100.215 44.5998V47.5172L100.844 47.6966V48.0254H99.043V47.6966L99.6329 47.5172V44.4743L99.043 44.3009V43.9602H100.446L103.507 47.3797V44.4743L102.877 44.3009V43.9602H104.687ZM112.064 45.108H111.626L111.395 44.3906H109.952V47.5172L110.622 47.6966V48.0254H108.597V47.6966L109.267 47.5172V44.3906H107.824L107.593 45.108H107.154V43.9602H112.064V45.108ZM121.242 44.3308C120.763 44.3308 120.381 44.3846 120.094 44.4922C119.807 44.5959 119.595 44.7672 119.456 45.0064C119.324 45.2455 119.257 45.5683 119.257 45.9748C119.257 46.3893 119.324 46.7201 119.456 46.9672C119.595 47.2103 119.804 47.3857 120.086 47.4933C120.368 47.6009 120.737 47.6547 121.194 47.6547C121.486 47.6547 121.787 47.6368 122.094 47.6009C122.408 47.5611 122.695 47.4993 122.955 47.4156V47.858C122.732 47.9337 122.464 47.9915 122.15 48.0314C121.837 48.0752 121.518 48.0971 121.194 48.0971C119.424 48.0971 118.539 47.3957 118.539 45.9928C118.539 45.2634 118.774 44.7314 119.241 44.3966C119.709 44.0578 120.397 43.8884 121.305 43.8884C121.837 43.8884 122.387 43.9363 122.955 44.0319V45.0901H122.397L122.262 44.4085C121.933 44.3567 121.592 44.3308 121.242 44.3308ZM128.25 43.8884C129.057 43.8884 129.687 44.0638 130.139 44.4145C130.59 44.7613 130.816 45.2873 130.816 45.9928C130.816 46.6982 130.59 47.2263 130.139 47.577C129.687 47.9237 129.057 48.0971 128.25 48.0971C127.441 48.0971 126.812 47.9237 126.361 47.577C125.909 47.2263 125.683 46.6982 125.683 45.9928C125.683 45.2873 125.909 44.7613 126.361 44.4145C126.812 44.0638 127.441 43.8884 128.25 43.8884ZM128.25 44.3308C127.819 44.3308 127.468 44.3846 127.197 44.4922C126.931 44.5998 126.732 44.7752 126.6 45.0183C126.467 45.2614 126.4 45.5863 126.4 45.9928C126.4 46.3993 126.467 46.7241 126.6 46.9672C126.732 47.2103 126.931 47.3857 127.197 47.4933C127.468 47.6009 127.819 47.6547 128.25 47.6547C128.68 47.6547 129.028 47.6009 129.294 47.4933C129.565 47.3857 129.767 47.2103 129.9 46.9672C130.032 46.7241 130.099 46.3993 130.099 45.9928C130.099 45.5863 130.032 45.2614 129.9 45.0183C129.767 44.7752 129.565 44.5998 129.294 44.4922C129.028 44.3846 128.68 44.3308 128.25 44.3308ZM139.469 44.4743V47.5172L140.059 47.6966V48.0254H138.233V47.6966L138.783 47.5172V44.3547L136.974 47.5172H136.44L134.622 44.3547V47.5172L135.172 47.6966V48.0254H133.459V47.6966L134.049 47.5172V44.4743L133.459 44.3009V43.9602H135.141L136.775 46.8477L138.409 43.9602H140.059V44.3009L139.469 44.4743ZM144.088 46.4112V47.5112L144.678 47.6966V48.0254H142.813V47.6966L143.403 47.5112V44.4743L142.813 44.3009V43.9602H145.985C146.501 43.9602 146.891 44.0638 147.157 44.271C147.422 44.4783 147.555 44.7832 147.555 45.1857C147.555 45.5882 147.414 45.8931 147.133 46.1004C146.856 46.3076 146.45 46.4112 145.913 46.4112H144.088ZM146.838 45.1857C146.838 44.9067 146.764 44.7055 146.615 44.5819C146.471 44.4544 146.24 44.3906 145.921 44.3906H144.088V45.9808H145.842C146.198 45.9808 146.453 45.919 146.607 45.7955C146.761 45.6719 146.838 45.4687 146.838 45.1857ZM154.796 47.6966V48.0254H152.963V47.6966L153.521 47.5352L153.091 46.6564H150.739L150.301 47.5411L150.867 47.6966V48.0254H149.169V47.6966L149.719 47.5112L151.536 43.9123H152.429L154.246 47.5053L154.796 47.6966ZM152.883 46.2319L151.919 44.271L150.946 46.2319H152.883ZM162.812 43.9602V44.3009L162.222 44.4743V48.0254H161.409L158.34 44.5998V47.5172L158.97 47.6966V48.0254H157.168V47.6966L157.758 47.5172V44.4743L157.168 44.3009V43.9602H158.571L161.632 47.3797V44.4743L161.003 44.3009V43.9602H162.812ZM170.43 43.9602V44.3009L169.92 44.4743L168.158 46.4411V47.5172L168.828 47.6966V48.0254H166.803V47.6966L167.473 47.5172V46.4411L165.719 44.4743L165.201 44.3009V43.9602H167.066V44.3009L166.508 44.4743L167.871 46.0286L169.234 44.4743L168.684 44.3009V43.9602H170.43Z" fill="#FBFBFB"/>
<path fill-rule="evenodd" clip-rule="evenodd" d="M1.5942 12.7536H24.7101C25.5906 12.7536 26.3043 13.4674 26.3043 14.3478V35.0725C26.3043 35.9529 25.5906 36.6667 24.7101 36.6667H1.5942C0.713749 36.6667 0 35.9529 0 35.0725V14.3478C0 13.4674 0.713749 12.7536 1.5942 12.7536ZM7.78964 30.4891V18.6727V15.942C6.92559 16.0198 5.84359 16.1506 4.91728 16.3141V32.8244C6.37292 33.0735 7.77407 33.2408 9.12075 33.3265C10.4674 33.4121 11.744 33.4549 12.9506 33.4549C14.126 33.4549 15.3792 33.4121 16.7104 33.3265C18.0492 33.2408 19.4581 33.0735 20.9371 32.8244C21.0928 31.9058 21.1232 30.6884 21.1232 29.8913L18.4851 30.3957C17.9325 30.5047 17.3136 30.5942 16.6286 30.6643C15.9514 30.7266 15.1768 30.7694 14.305 30.7928C14.0715 30.8083 13.838 30.8161 13.6044 30.8161H12.9039H12.2149C11.9892 30.8161 11.7596 30.8083 11.5261 30.7928C10.7943 30.7694 10.1171 30.7304 9.49435 30.676C8.87166 30.6215 8.3034 30.5592 7.78964 30.4891Z" fill="#02D2B6"/>
<path d="M179.348 14.9457C181.439 14.9457 183.134 13.2505 183.134 11.1594C183.134 9.06835 181.439 7.3732 179.348 7.3732C177.257 7.3732 175.562 9.06835 175.562 11.1594C175.562 13.2505 177.257 14.9457 179.348 14.9457Z" stroke="#FBFBFB" stroke-width="0.5"/>
<path d="M178.959 8.79297C179.166 8.79297 179.378 8.80341 179.594 8.82414C179.812 8.84287 180.024 8.87706 180.229 8.92688C180.434 8.97463 180.627 9.04214 180.808 9.12927C180.989 9.2144 181.147 9.32336 181.282 9.45624C181.419 9.58696 181.526 9.74479 181.605 9.92948C181.684 10.1122 181.723 10.327 181.723 10.574C181.723 10.9145 181.663 11.202 181.54 11.4366C181.417 11.669 181.251 11.8569 181.039 12.0001C181.128 12.1371 181.204 12.2803 181.269 12.4298C181.333 12.5792 181.385 12.7245 181.424 12.8657C181.467 13.0048 181.496 13.1345 181.515 13.2549C181.534 13.3753 181.543 13.4759 181.543 13.5569H180.746C180.746 13.4303 180.736 13.3109 180.715 13.1989C180.694 13.0847 180.665 12.9767 180.627 12.875C180.591 12.7712 180.547 12.6737 180.497 12.5824C180.449 12.491 180.397 12.4028 180.341 12.3177C180.144 12.3737 179.935 12.4142 179.715 12.4391C179.495 12.4619 179.266 12.4733 179.027 12.4733C178.884 12.4733 178.739 12.4692 178.591 12.4609C178.444 12.4526 178.299 12.4423 178.155 12.4298V13.5445H177.383V8.97359C177.428 8.95908 177.502 8.94139 177.601 8.92066C177.703 8.89994 177.822 8.88017 177.959 8.86152C178.098 8.84287 178.253 8.82724 178.423 8.81481C178.593 8.8003 178.772 8.79297 178.959 8.79297ZM179.183 9.478C179.046 9.478 178.915 9.48421 178.791 9.49673C178.666 9.50709 178.557 9.51953 178.464 9.53403C178.352 9.55069 178.249 9.56935 178.155 9.59007V11.7198C178.222 11.7344 178.296 11.7469 178.376 11.7572C178.445 11.7676 178.524 11.7769 178.616 11.7853C178.708 11.7915 178.805 11.7946 178.909 11.7946C179.043 11.7946 179.186 11.7915 179.335 11.7853C179.487 11.7769 179.636 11.7593 179.784 11.7324C179.933 11.7053 180.074 11.6659 180.207 11.614C180.342 11.56 180.461 11.4895 180.562 11.4023C180.666 11.313 180.748 11.203 180.808 11.0722C180.87 10.9415 180.901 10.7836 180.901 10.599C180.901 10.4454 180.877 10.3104 180.827 10.1942C180.777 10.0779 180.709 9.97826 180.625 9.89528C180.54 9.81222 180.44 9.74375 180.326 9.68971C180.214 9.63574 180.093 9.59326 179.964 9.56209C179.838 9.53093 179.707 9.50916 179.572 9.49673C179.44 9.48421 179.31 9.478 179.183 9.478Z" fill="#FBFBFB"/>
</svg>
