<svg width="321" height="73" viewBox="0 0 321 73" fill="none" xmlns="http://www.w3.org/2000/svg">
<path d="M88.81 23.095V56.9737H82.993V51.8599C81.7573 53.6071 80.1166 54.9709 78.071 55.951C76.0682 56.8885 73.8735 57.3572 71.4871 57.3572C66.9699 57.3572 63.4116 56.1215 60.8121 53.6498C58.2125 51.1355 56.9128 47.4493 56.9128 42.5912V23.095H63.0494V41.8881C63.0494 45.1694 63.8377 47.6623 65.4145 49.367C66.9913 51.029 69.2498 51.8599 72.1902 51.8599C75.429 51.8599 77.9859 50.8798 79.8609 48.9195C81.7359 46.9592 82.6734 44.1893 82.6734 40.6097V23.095H88.81ZM142.873 22.7754C147.135 22.7754 150.5 24.0112 152.972 26.4829C155.486 28.9546 156.744 32.6194 156.744 37.4775V56.9737H150.607V38.1806C150.607 34.8993 149.84 32.4276 148.306 30.7657C146.815 29.1037 144.663 28.2727 141.85 28.2727C138.739 28.2727 136.267 29.2528 134.435 31.2131C132.602 33.1308 131.686 35.9007 131.686 39.523V56.9737H125.55V38.1806C125.55 34.8993 124.783 32.4276 123.249 30.7657C121.757 29.1037 119.605 28.2727 116.792 28.2727C113.681 28.2727 111.21 29.2528 109.377 31.2131C107.545 33.1308 106.629 35.9007 106.629 39.523V56.9737H100.492V23.095H106.373V28.1448C107.609 26.3977 109.228 25.0766 111.231 24.1817C113.234 23.2441 115.514 22.7754 118.071 22.7754C120.713 22.7754 123.057 23.308 125.102 24.3734C127.148 25.4389 128.724 26.9942 129.833 29.0398C131.111 27.0794 132.879 25.5453 135.138 24.4374C137.439 23.3294 140.017 22.7754 142.873 22.7754ZM197.39 23.095L180.962 60.3616C179.513 63.8134 177.809 66.2424 175.848 67.6487C173.931 69.055 171.609 69.7581 168.881 69.7581C167.219 69.7581 165.6 69.4812 164.023 68.9271C162.489 68.4158 161.21 67.6487 160.187 66.6259L162.808 62.0235C164.555 63.6855 166.58 64.5165 168.881 64.5165C170.372 64.5165 171.609 64.1117 172.588 63.302C173.611 62.5349 174.527 61.1926 175.337 59.2749L176.424 56.9098L161.466 23.095H167.858L179.684 50.198L191.381 23.095H197.39Z" fill="#02D2B6"/>
<path d="M212.833 57.3574C210.063 57.3574 207.399 56.9951 204.842 56.2707C202.286 55.5037 200.283 54.5448 198.834 53.3942L201.391 48.5362C202.883 49.6016 204.694 50.4538 206.824 51.0931C208.956 51.7323 211.107 52.0519 213.28 52.0519C218.65 52.0519 221.334 50.5177 221.334 47.4495C221.334 46.4267 220.973 45.617 220.248 45.0204C219.524 44.4239 218.608 43.9977 217.499 43.742C216.435 43.4437 214.9 43.124 212.897 42.7832C210.17 42.357 207.933 41.867 206.185 41.313C204.481 40.7589 203.011 39.8215 201.774 38.5004C200.539 37.1793 199.92 35.3256 199.92 32.9392C199.92 29.8709 201.199 27.4206 203.756 25.5881C206.313 23.7131 209.744 22.7756 214.047 22.7756C216.307 22.7756 218.565 23.0525 220.823 23.6065C223.082 24.1606 224.936 24.9063 226.384 25.8438L223.763 30.7019C220.994 28.9121 217.734 28.0172 213.983 28.0172C211.385 28.0172 209.403 28.4434 208.039 29.2956C206.675 30.1479 205.993 31.2772 205.993 32.6835C205.993 33.7914 206.377 34.6651 207.144 35.3043C207.911 35.9435 208.849 36.4122 209.956 36.7106C211.107 37.0089 212.705 37.3498 214.75 37.7333C217.478 38.202 219.672 38.7134 221.334 39.2675C223.039 39.7788 224.489 40.6737 225.681 41.9522C226.875 43.2306 227.471 45.0205 227.471 47.3216C227.471 50.3899 226.151 52.8402 223.508 54.6727C220.909 56.4625 217.35 57.3574 212.833 57.3574ZM249.65 57.3574C246.285 57.3574 243.258 56.6116 240.573 55.1201C237.889 53.6287 235.779 51.5832 234.245 48.9836C232.754 46.3416 232.008 43.3585 232.008 40.0345C232.008 36.7106 232.754 33.7489 234.245 31.1494C235.779 28.5073 237.889 26.4618 240.573 25.0128C243.258 23.5214 246.285 22.7756 249.65 22.7756C253.017 22.7756 256.022 23.5214 258.663 25.0128C261.348 26.4618 263.437 28.5073 264.928 31.1494C266.462 33.7489 267.229 36.7106 267.229 40.0345C267.229 43.3585 266.462 46.3416 264.928 48.9836C263.437 51.5832 261.348 53.6287 258.663 55.1201C256.022 56.6116 253.017 57.3574 249.65 57.3574ZM249.65 51.988C251.824 51.988 253.764 51.4978 255.467 50.5177C257.215 49.495 258.579 48.0887 259.558 46.2989C260.539 44.4664 261.029 42.3784 261.029 40.0345C261.029 37.6907 260.539 35.6239 259.558 33.8341C258.579 32.0016 257.215 30.5953 255.467 29.6152C253.764 28.6351 251.824 28.145 249.65 28.145C247.477 28.145 245.518 28.6351 243.77 29.6152C242.066 30.5953 240.701 32.0016 239.679 33.8341C238.699 35.6239 238.208 37.6907 238.208 40.0345C238.208 42.3784 238.699 44.4664 239.679 46.2989C240.701 48.0887 242.066 49.495 243.77 50.5177C245.518 51.4978 247.477 51.988 249.65 51.988ZM288.118 14.21C284.452 14.21 282.62 16.1916 282.62 20.1548V23.0952H292.464V28.145H282.748V56.9739H276.612V28.145H270.859V23.0952H276.612V20.0908C276.612 16.7242 277.591 14.0609 279.552 12.1006C281.511 10.1403 284.26 9.16016 287.798 9.16016C289.161 9.16016 290.44 9.33062 291.633 9.67153C292.826 10.0124 293.848 10.5025 294.702 11.1417L292.848 15.8081C291.442 14.7426 289.864 14.21 288.118 14.21ZM317.299 54.9923C316.404 55.7594 315.297 56.3559 313.975 56.7821C312.655 57.1656 311.291 57.3574 309.884 57.3574C306.476 57.3574 303.834 56.4412 301.958 54.6088C300.084 52.7763 299.146 50.1555 299.146 46.7463V28.145H293.393V23.0952H299.146V15.6802H305.282V23.0952H314.998V28.145H305.282V46.4907C305.282 48.3231 305.729 49.7294 306.624 50.7095C307.562 51.6896 308.884 52.1797 310.588 52.1797C312.464 52.1797 314.062 51.6471 315.382 50.5817L317.299 54.9923Z" fill="#FDFDFD"/>
<path fill-rule="evenodd" clip-rule="evenodd" d="M2.77922 8.33789C1.2443 8.33789 0 9.58219 0 11.1171V54.8898C0 56.4248 1.2443 57.6691 2.77922 57.6691H47.2468C48.7817 57.6691 50.026 56.4248 50.026 54.8898V11.1171C50.026 9.58219 48.7817 8.33789 47.2468 8.33789H2.77922ZM18.5166 13.8963H12.9581V52.8054H39.5831V47.9696H18.5166V13.8963Z" fill="#02D2B6"/>
</svg>
