<svg width="344" height="97" viewBox="0 0 344 97" fill="none" xmlns="http://www.w3.org/2000/svg">
<path d="M69.6007 54.7287C69.6007 55.5706 69.9012 56.2754 70.5019 56.8429C71.1211 57.4103 71.9404 57.8771 72.9601 58.2432C73.9979 58.591 75.1905 58.8473 76.5379 59.012C77.8853 59.1584 79.2874 59.2316 80.744 59.2316C82.2734 59.2316 83.7119 59.1492 85.0593 58.9845C86.4066 58.8014 87.5811 58.536 88.5825 58.1882C89.584 57.8221 90.376 57.3554 90.9587 56.7879C91.5413 56.2205 91.8327 55.5341 91.8327 54.7287V33.3672L99.0977 33.9163V56.4859C99.0977 57.4744 98.8519 58.3804 98.3602 59.2042C97.8868 60.0278 97.2222 60.7693 96.3664 61.4282C95.5107 62.0688 94.5001 62.6272 93.3349 63.103C92.1695 63.579 90.9041 63.9725 89.5384 64.2838C88.1911 64.5949 86.7617 64.8237 85.2504 64.9701C83.7574 65.1348 82.2553 65.2172 80.744 65.2172C79.2145 65.2172 77.7033 65.1348 76.2102 64.9701C74.7172 64.8237 73.2878 64.5949 71.9223 64.2838C70.5748 63.9725 69.3185 63.579 68.1532 63.103C66.9878 62.6272 65.9773 62.0688 65.1215 61.4282C64.2657 60.7693 63.592 60.037 63.1005 59.2316C62.627 58.4079 62.3904 57.4926 62.3904 56.4859V33.9163L69.6007 33.3672V54.7287ZM132.298 33.1475C135.102 33.1475 137.633 33.3855 139.891 33.8613C142.149 34.3191 144.07 35.0145 145.654 35.9481C147.238 36.8817 148.458 38.044 149.313 39.4352C150.169 40.8079 150.597 42.4097 150.597 44.2402V64.6681H143.441V45.8875C143.441 44.3682 143.114 43.1327 142.458 42.1808C141.803 41.2107 140.938 40.451 139.864 39.9019C138.789 39.3528 137.569 38.9776 136.204 38.7761C134.838 38.5748 133.445 38.4742 132.025 38.4742V64.6681H125.416V38.4742C124.232 38.4742 123.094 38.5748 122.002 38.7761C120.927 38.9592 119.908 39.2154 118.943 39.545C117.978 39.8745 117.067 40.2497 116.211 40.6707C115.356 41.0918 114.564 41.5311 113.835 41.9887V64.6681H106.679V41.9887C106.607 41.4029 106.434 40.9087 106.16 40.506C105.906 40.1032 105.623 39.7738 105.314 39.5175C104.968 39.2063 104.585 38.95 104.167 38.7487L107.226 33.3672C107.899 33.605 108.564 33.9163 109.219 34.3006C109.784 34.6302 110.376 35.0603 110.995 35.5912C111.614 36.122 112.16 36.7717 112.634 37.5406C114.108 36.6437 115.529 35.9115 116.894 35.344C118.26 34.7584 119.698 34.3098 121.209 33.9987C122.721 33.6692 124.369 33.4496 126.153 33.3396C127.937 33.2116 129.986 33.1475 132.298 33.1475ZM163.586 51.9281C163.586 52.9532 163.723 53.8409 163.996 54.5914C164.27 55.3236 164.642 55.9551 165.116 56.4859C165.59 56.9985 166.127 57.4195 166.727 57.7489C167.347 58.0784 167.993 58.3347 168.667 58.5177C169.341 58.6825 170.023 58.8014 170.715 58.8747C171.407 58.9296 172.072 58.9571 172.709 58.9571C175.021 58.9571 177.124 58.6551 179.017 58.051C180.912 57.4469 182.596 56.7055 184.071 55.8269V33.3672L191.118 33.9163V66.041C191.118 67.3405 190.843 68.5487 190.298 69.6653C189.751 70.7819 188.96 71.7429 187.922 72.5483C186.883 73.372 185.609 74.0126 184.098 74.4703C182.586 74.9279 180.866 75.1566 178.936 75.1566V70.3792C179.665 70.3792 180.338 70.3059 180.957 70.1594C181.576 70.0131 182.113 69.7842 182.568 69.4731C183.042 69.1801 183.406 68.8049 183.661 68.3474C183.934 67.908 184.071 67.3955 184.071 66.8097V61.0438C183.215 61.5746 182.341 62.0596 181.449 62.499C180.575 62.9383 179.655 63.3228 178.69 63.6521C177.725 63.9634 176.714 64.2105 175.659 64.3935C174.603 64.5766 173.492 64.6681 172.326 64.6681C169.504 64.6681 167.092 64.4392 165.088 63.9817C163.086 63.5058 161.438 62.8102 160.145 61.8949C158.871 60.9614 157.933 59.8083 157.333 58.4354C156.732 57.0625 156.431 55.4608 156.431 53.6303V33.9163L163.586 33.3672V51.9281Z" fill="#02D2B6"/>
<path d="M214.813 33.3653C216.981 33.3653 219.092 33.5025 221.149 33.7771C223.208 34.0334 225.055 34.4818 226.694 35.1226C228.333 35.7449 229.681 36.5961 230.737 37.6761C231.792 38.756 232.42 40.1013 232.62 41.7122L226.284 43.4695C226.284 42.5176 225.957 41.7305 225.301 41.1082C224.663 40.4676 223.808 39.9733 222.734 39.6255C221.678 39.2594 220.458 39.0031 219.074 38.8566C217.69 38.7103 216.27 38.6371 214.813 38.6371C213.411 38.6371 212.018 38.7103 210.635 38.8566C209.269 38.9849 208.04 39.232 206.947 39.5981C205.873 39.9459 204.999 40.4309 204.325 41.0532C203.67 41.6756 203.342 42.4811 203.342 43.4695V46.8192H232.62V56.3193C232.62 57.3993 232.384 58.3603 231.911 59.2023C231.437 60.026 230.781 60.749 229.944 61.3713C229.106 61.9754 228.115 62.4971 226.967 62.9364C225.838 63.3574 224.609 63.6961 223.28 63.9524C221.969 64.2086 220.586 64.3917 219.129 64.5015C217.69 64.6113 216.252 64.6662 214.813 64.6662C212.611 64.6662 210.48 64.5382 208.423 64.2819C206.364 64.0072 204.517 63.5588 202.878 62.9364C201.239 62.2958 199.891 61.4446 198.835 60.3829C197.798 59.303 197.188 57.9485 197.006 56.3193L203.342 54.5621C203.342 55.5688 203.67 56.3834 204.325 57.0058C204.999 57.6281 205.873 58.1131 206.947 58.4609C208.04 58.8087 209.269 59.0467 210.635 59.1749C212.018 59.2847 213.411 59.3395 214.813 59.3395C216.27 59.3395 217.69 59.2756 219.074 59.1474C220.458 59.001 221.678 58.7539 222.734 58.4061C223.808 58.04 224.663 57.5549 225.301 56.9508C225.957 56.3285 226.284 55.5322 226.284 54.5621V51.2123H197.006V41.7122C197.006 40.6322 197.243 39.6804 197.715 38.8566C198.189 38.0147 198.835 37.2916 199.655 36.6876C200.493 36.0652 201.476 35.5436 202.605 35.1226C203.734 34.6833 204.953 34.3355 206.265 34.0792C207.593 33.8229 208.978 33.6399 210.417 33.5301C211.872 33.4202 213.338 33.3653 214.813 33.3653ZM255.879 32.871C257.409 32.871 258.929 32.9443 260.441 33.0908C261.971 33.2371 263.436 33.4751 264.837 33.8046C266.24 34.134 267.552 34.5459 268.771 35.0402C269.99 35.5343 271.047 36.1293 271.94 36.8248C272.85 37.5204 273.559 38.3258 274.069 39.2411C274.58 40.138 274.834 41.1447 274.834 42.2613V56.4841C274.834 57.4725 274.58 58.3785 274.069 59.2023C273.559 60.026 272.85 60.7674 271.94 61.4263C271.047 62.0669 269.99 62.6253 268.771 63.1012C267.552 63.5772 266.24 63.9706 264.837 64.2819C263.436 64.593 261.971 64.8219 260.441 64.9682C258.911 65.133 257.391 65.2153 255.879 65.2153C254.369 65.2153 252.848 65.133 251.319 64.9682C249.808 64.8219 248.35 64.593 246.949 64.2819C245.547 63.9706 244.235 63.5772 243.016 63.1012C241.814 62.6253 240.757 62.0669 239.847 61.4263C238.955 60.7674 238.254 60.0351 237.745 59.2297C237.235 58.4061 236.98 57.4908 236.98 56.4841V42.2613C236.98 41.1447 237.235 40.138 237.745 39.2411C238.254 38.3258 238.955 37.5204 239.847 36.8248C240.757 36.1293 241.814 35.5343 243.016 35.0402C244.235 34.5459 245.547 34.134 246.949 33.8046C248.35 33.4751 249.808 33.2371 251.319 33.0908C252.848 32.9443 254.369 32.871 255.879 32.871ZM243.918 54.7268C243.918 55.5688 244.263 56.301 244.955 56.9234C245.666 57.5275 246.584 58.04 247.713 58.4609C248.843 58.8637 250.117 59.1656 251.537 59.3671C252.975 59.5684 254.424 59.6691 255.879 59.6691C257.409 59.6691 258.884 59.5593 260.304 59.3395C261.743 59.1199 263.017 58.8087 264.128 58.4061C265.239 57.985 266.121 57.4725 266.777 56.8684C267.451 56.2461 267.788 55.5322 267.788 54.7268V43.3047C267.788 42.5176 267.451 41.8129 266.777 41.1906C266.121 40.5499 265.239 40.019 264.128 39.5981C263.017 39.1588 261.743 38.8292 260.304 38.6095C258.884 38.3716 257.409 38.2526 255.879 38.2526C254.424 38.2526 252.975 38.3625 251.537 38.5821C250.117 38.7834 248.843 39.0947 247.713 39.5157C246.584 39.9367 245.666 40.4676 244.955 41.1082C244.263 41.7305 243.918 42.4627 243.918 43.3047V54.7268ZM293.996 27.7091C293.249 27.7091 292.567 27.7823 291.948 27.9288C291.329 28.0753 290.783 28.304 290.309 28.6153C289.854 28.9081 289.499 29.2833 289.245 29.7409C288.989 30.1804 288.861 30.6928 288.861 31.2786V32.9808H295.908V37.5937H288.861V64.6662H281.76V37.5937H277.336V32.9808H281.76V32.0474C281.76 30.7477 282.033 29.5396 282.58 28.4231C283.127 27.3065 283.918 26.3455 284.956 25.5401C286.011 24.7163 287.295 24.0757 288.807 23.6181C290.318 23.1605 292.048 22.9316 293.996 22.9316V27.7091ZM309.389 32.9808H316.327V37.5937H309.389V64.6662H302.888V37.5937H297.755V32.9808H302.888V23.4259H309.389V32.9808Z" fill="#FBFBFB"/>
<path d="M25.3333 77.5308V78.1318L24.3684 78.4376L21.8793 84.7004H20.4669L18.3414 79.0807L16.1739 84.7004H14.7476L12.2305 78.4376L11.2656 78.1318V77.5308H14.5238V78.1318L13.489 78.4376L15.5586 83.7515L17.6702 78.1107H19.1385L21.264 83.7409L23.3196 78.4376L22.2848 78.1318V77.5308H25.3333ZM37.8873 79.397H37.0623L36.6987 78.2899H31.9442V80.7149H34.727L34.9367 79.9031H35.7058V82.2859H34.9367L34.727 81.4741H31.9442V83.9412H36.6987L37.0623 82.7287H37.8873V84.7004H29.7068V84.1205L30.7416 83.8042V78.4376L29.7068 78.1318V77.5308H37.8873V79.397ZM42.6751 84.1205L43.7098 83.7936V78.4376L42.6751 78.1318V77.5308H48.3664C49.2148 77.5308 49.8393 77.6855 50.2403 77.9947C50.6504 78.297 50.8555 78.7257 50.8555 79.281C50.8555 79.766 50.7203 80.1597 50.45 80.4619C50.1889 80.7571 49.8114 80.9539 49.3173 81.0523C49.8393 81.1156 50.2496 81.2948 50.5479 81.59C50.8462 81.8782 50.9954 82.2965 50.9954 82.8447C50.9954 83.4562 50.7902 83.9202 50.3801 84.2365C49.9699 84.5457 49.3639 84.7004 48.5622 84.7004H42.6751V84.1205ZM48.1007 80.7149C48.6415 80.7149 49.0237 80.6236 49.2474 80.4408C49.4805 80.251 49.597 79.9382 49.597 79.5024C49.597 79.0737 49.4897 78.7644 49.2754 78.5746C49.061 78.3848 48.7067 78.2899 48.2126 78.2899H44.9124V80.7149H48.1007ZM48.3245 83.9412C48.8185 83.9412 49.1775 83.8464 49.4012 83.6566C49.625 83.4598 49.7368 83.1435 49.7368 82.7077C49.7368 82.2648 49.6204 81.9485 49.3872 81.7587C49.1541 81.569 48.7626 81.4741 48.2126 81.4741H44.9124V83.9412H48.3245ZM68.1148 77.5308C69.3546 77.5308 70.3754 77.8014 71.1773 78.3427C71.979 78.8839 72.3799 79.8012 72.3799 81.0945C72.3799 82.4089 71.979 83.3403 71.1773 83.8885C70.3754 84.4298 69.3546 84.7004 68.1148 84.7004H63.0947V84.1205L64.3532 83.7936V78.4376L63.0947 78.1318V77.5308H68.1148ZM65.5558 78.2899V83.9412H67.8212C68.5204 83.9412 69.1077 83.8639 69.5831 83.7093C70.0586 83.5476 70.4314 83.2594 70.7018 82.8447C70.9815 82.423 71.1213 81.8396 71.1213 81.0945C71.1213 80.3635 70.9815 79.7941 70.7018 79.3865C70.4314 78.9718 70.0586 78.6871 69.5831 78.5324C69.1077 78.3708 68.5204 78.2899 67.8212 78.2899H65.5558ZM85.1993 79.397H84.3743L84.0107 78.2899H79.2562V80.7149H82.039L82.2488 79.9031H83.0179V82.2859H82.2488L82.039 81.4741H79.2562V83.9412H84.0107L84.3743 82.7287H85.1993V84.7004H77.0188V84.1205L78.0536 83.8042V78.4376L77.0188 78.1318V77.5308H85.1993V79.397ZM99.3702 77.5308V78.1318L98.4053 78.4376L95.245 84.7004H93.7487L90.5884 78.4376L89.6235 78.1318V77.5308H92.9097V78.1318L91.8749 78.4376L94.6017 83.9623L97.3425 78.4376L96.3077 78.1318V77.5308H99.3702ZM112.01 79.397H111.185L110.821 78.2899H106.067V80.7149H108.849L109.059 79.9031H109.828V82.2859H109.059L108.849 81.4741H106.067V83.9412H110.821L111.185 82.7287H112.01V84.7004H103.829V84.1205L104.864 83.8042V78.4376L103.829 78.1318V77.5308H112.01V79.397ZM120.07 78.1318L119.035 78.4376V83.9412H123.552L123.915 82.7287H124.74V84.7004H116.798V84.1205L117.832 83.8042V78.4376L116.798 78.1318V77.5308H120.07V78.1318ZM133.39 77.4043C134.807 77.4043 135.912 77.7136 136.705 78.3321C137.497 78.9436 137.893 79.8715 137.893 81.1156C137.893 82.3597 137.497 83.2911 136.705 83.9096C135.912 84.5211 134.807 84.8269 133.39 84.8269C131.973 84.8269 130.869 84.5211 130.076 83.9096C129.284 83.2911 128.888 82.3597 128.888 81.1156C128.888 79.8715 129.284 78.9436 130.076 78.3321C130.869 77.7136 131.973 77.4043 133.39 77.4043ZM133.39 78.1845C132.635 78.1845 132.02 78.2794 131.545 78.4692C131.078 78.659 130.729 78.9682 130.496 79.397C130.263 79.8258 130.146 80.3986 130.146 81.1156C130.146 81.8326 130.263 82.4054 130.496 82.8342C130.729 83.2629 131.078 83.5722 131.545 83.762C132.02 83.9518 132.635 84.0467 133.39 84.0467C134.145 84.0467 134.756 83.9518 135.222 83.762C135.698 83.5722 136.052 83.2629 136.285 82.8342C136.518 82.4054 136.635 81.8326 136.635 81.1156C136.635 80.3986 136.518 79.8258 136.285 79.397C136.052 78.9682 135.698 78.659 135.222 78.4692C134.756 78.2794 134.145 78.1845 133.39 78.1845ZM144.767 81.8536V83.7936L145.801 84.1205V84.7004H142.529V84.1205L143.564 83.7936V78.4376L142.529 78.1318V77.5308H148.095C148.999 77.5308 149.684 77.7136 150.15 78.0791C150.617 78.4446 150.85 78.9823 150.85 79.6922C150.85 80.4022 150.603 80.9399 150.108 81.3054C149.624 81.6709 148.911 81.8536 147.969 81.8536H144.767ZM149.591 79.6922C149.591 79.2002 149.461 78.8452 149.2 78.6273C148.948 78.4024 148.542 78.2899 147.983 78.2899H144.767V81.0945H147.843C148.468 81.0945 148.915 80.9856 149.186 80.7677C149.456 80.5498 149.591 80.1913 149.591 79.6922ZM165.864 78.4376V83.8042L166.899 84.1205V84.7004H163.697V84.1205L164.662 83.8042V78.2267L161.487 83.8042H160.55L157.362 78.2267V83.8042L158.327 84.1205V84.7004H155.321V84.1205L156.355 83.8042V78.4376L155.321 78.1318V77.5308H158.271L161.138 82.6233L164.004 77.5308H166.899V78.1318L165.864 78.4376ZM179.91 79.397H179.084L178.721 78.2899H173.966V80.7149H176.749L176.959 79.9031H177.728V82.2859H176.959L176.749 81.4741H173.966V83.9412H178.721L179.084 82.7287H179.91V84.7004H171.729V84.1205L172.764 83.8042V78.4376L171.729 78.1318V77.5308H179.91V79.397ZM194.598 77.5308V78.1318L193.563 78.4376V84.7004H192.137L186.753 78.659V83.8042L187.858 84.1205V84.7004H184.698V84.1205L185.732 83.8042V78.4376L184.698 78.1318V77.5308H187.159L192.528 83.5617V78.4376L191.424 78.1318V77.5308H194.598ZM207.541 79.5552H206.772L206.367 78.2899H203.836V83.8042L205.01 84.1205V84.7004H201.458V84.1205L202.633 83.8042V78.2899H200.102L199.697 79.5552H198.927V77.5308H207.541V79.5552ZM223.641 78.1845C222.802 78.1845 222.131 78.2794 221.627 78.4692C221.124 78.6519 220.752 78.9542 220.509 79.3759C220.276 79.7977 220.159 80.367 220.159 81.084C220.159 81.815 220.276 82.3984 220.509 82.8342C220.752 83.2629 221.12 83.5722 221.613 83.762C222.108 83.9518 222.756 84.0467 223.557 84.0467C224.07 84.0467 224.597 84.015 225.137 83.9518C225.688 83.8815 226.192 83.7726 226.647 83.6249V84.4052C226.256 84.5387 225.786 84.6406 225.235 84.7109C224.685 84.7882 224.126 84.8269 223.557 84.8269C220.453 84.8269 218.9 83.5898 218.9 81.1156C218.9 79.8293 219.312 78.8909 220.131 78.3005C220.952 77.703 222.159 77.4043 223.753 77.4043C224.685 77.4043 225.65 77.4886 226.647 77.6573V79.5235H225.669L225.431 78.3216C224.853 78.2302 224.256 78.1845 223.641 78.1845ZM235.935 77.4043C237.352 77.4043 238.457 77.7136 239.25 78.3321C240.041 78.9436 240.438 79.8715 240.438 81.1156C240.438 82.3597 240.041 83.2911 239.25 83.9096C238.457 84.5211 237.352 84.8269 235.935 84.8269C234.517 84.8269 233.413 84.5211 232.621 83.9096C231.828 83.2911 231.433 82.3597 231.433 81.1156C231.433 79.8715 231.828 78.9436 232.621 78.3321C233.413 77.7136 234.517 77.4043 235.935 77.4043ZM235.935 78.1845C235.18 78.1845 234.565 78.2794 234.09 78.4692C233.622 78.659 233.273 78.9682 233.041 79.397C232.807 79.8258 232.691 80.3986 232.691 81.1156C232.691 81.8326 232.807 82.4054 233.041 82.8342C233.273 83.2629 233.622 83.5722 234.09 83.762C234.565 83.9518 235.18 84.0467 235.935 84.0467C236.691 84.0467 237.3 83.9518 237.767 83.762C238.243 83.5722 238.596 83.2629 238.83 82.8342C239.062 82.4054 239.18 81.8326 239.18 81.1156C239.18 80.3986 239.062 79.8258 238.83 79.397C238.596 78.9682 238.243 78.659 237.767 78.4692C237.3 78.2794 236.691 78.1845 235.935 78.1845ZM255.617 78.4376V83.8042L256.652 84.1205V84.7004H253.45V84.1205L254.415 83.8042V78.2267L251.241 83.8042H250.304L247.115 78.2267V83.8042L248.08 84.1205V84.7004H245.074V84.1205L246.109 83.8042V78.4376L245.074 78.1318V77.5308H248.024L250.891 82.6233L253.758 77.5308H256.652V78.1318L255.617 78.4376ZM263.721 81.8536V83.7936L264.756 84.1205V84.7004H261.484V84.1205L262.518 83.7936V78.4376L261.484 78.1318V77.5308H267.049C267.954 77.5308 268.639 77.7136 269.105 78.0791C269.57 78.4446 269.804 78.9823 269.804 79.6922C269.804 80.4022 269.556 80.9399 269.063 81.3054C268.578 81.6709 267.864 81.8536 266.923 81.8536H263.721ZM268.545 79.6922C268.545 79.2002 268.415 78.8452 268.154 78.6273C267.902 78.4024 267.497 78.2899 266.937 78.2899H263.721V81.0945H266.797C267.423 81.0945 267.87 80.9856 268.14 80.7677C268.41 80.5498 268.545 80.1913 268.545 79.6922ZM282.507 84.1205V84.7004H279.291V84.1205L280.269 83.8358L279.514 82.2859H275.389L274.62 83.8464L275.613 84.1205V84.7004H272.634V84.1205L273.599 83.7936L276.787 77.4465H278.354L281.542 83.7831L282.507 84.1205ZM279.151 81.5373L277.459 78.0791L275.753 81.5373H279.151ZM296.569 77.5308V78.1318L295.534 78.4376V84.7004H294.108L288.724 78.659V83.8042L289.829 84.1205V84.7004H286.668V84.1205L287.703 83.8042V78.4376L286.668 78.1318V77.5308H289.13L294.499 83.5617V78.4376L293.395 78.1318V77.5308H296.569ZM309.933 77.5308V78.1318L309.038 78.4376L305.948 81.9064V83.8042L307.122 84.1205V84.7004H303.571V84.1205L304.745 83.8042V81.9064L301.669 78.4376L300.76 78.1318V77.5308H304.032V78.1318L303.053 78.4376L305.444 81.1789L307.836 78.4376L306.871 78.1318V77.5308H309.933Z" fill="#FBFBFB"/>
<path fill-rule="evenodd" clip-rule="evenodd" d="M13.7423 22.4932H54.2952C55.8398 22.4932 57.0919 23.752 57.0919 25.3048V61.8555C57.0919 63.4083 55.8398 64.6671 54.2952 64.6671H13.7423C12.1977 64.6671 10.9456 63.4083 10.9456 61.8555V25.3048C10.9456 23.752 12.1977 22.4932 13.7423 22.4932ZM24.6111 53.7719V32.9321V28.1161C23.0953 28.2533 21.1971 28.484 19.5721 28.7723V57.8905C22.1257 58.3298 24.5838 58.6249 26.9463 58.776C29.3087 58.927 31.5484 59.0024 33.6651 59.0024C35.7271 59.0024 37.9257 58.927 40.2609 58.776C42.6098 58.6249 45.0814 58.3298 47.6761 57.8905C47.9492 56.2704 48.0025 54.1233 48.0025 52.7176L43.3744 53.6071C42.4049 53.7993 41.3192 53.9572 40.1175 54.0808C38.9294 54.1907 37.5706 54.2662 36.0412 54.3074C35.6315 54.3348 35.2219 54.3486 34.8122 54.3486H33.5831H32.3745C31.9785 54.3486 31.5756 54.3348 31.1661 54.3074C29.8823 54.2662 28.6943 54.1974 27.6017 54.1014C26.5093 54.0053 25.5124 53.8955 24.6111 53.7719Z" fill="#02D2B6"/>
<path d="M325.58 26.359C329.248 26.359 332.222 23.3693 332.222 19.6814C332.222 15.9935 329.248 13.0039 325.58 13.0039C321.911 13.0039 318.938 15.9935 318.938 19.6814C318.938 23.3693 321.911 26.359 325.58 26.359Z" stroke="#FBFBFB" stroke-width="0.5"/>
<path d="M324.897 15.5078C325.261 15.5078 325.633 15.5262 326.012 15.5628C326.394 15.5958 326.766 15.6561 327.125 15.744C327.486 15.8282 327.824 15.9473 328.142 16.1009C328.459 16.2511 328.736 16.4432 328.972 16.6776C329.213 16.9081 329.402 17.1865 329.54 17.5122C329.678 17.8344 329.747 18.2133 329.747 18.6489C329.747 19.2493 329.641 19.7564 329.425 20.1701C329.21 20.5801 328.918 20.9114 328.546 21.164C328.702 21.4057 328.837 21.6582 328.95 21.9219C329.063 22.1853 329.154 22.4416 329.223 22.6906C329.297 22.9359 329.348 23.1648 329.382 23.377C329.414 23.5893 329.431 23.7669 329.431 23.9097H328.033C328.033 23.6865 328.014 23.4759 327.978 23.2782C327.942 23.0769 327.89 22.8864 327.824 22.707C327.76 22.524 327.683 22.3519 327.595 22.191C327.512 22.0299 327.42 21.8742 327.322 21.7241C326.977 21.8229 326.61 21.8943 326.224 21.9383C325.838 21.9786 325.436 21.9987 325.018 21.9987C324.766 21.9987 324.511 21.9913 324.253 21.9767C323.994 21.9621 323.74 21.9438 323.488 21.9219V23.8878H322.133V15.8264C322.213 15.8008 322.341 15.7696 322.516 15.733C322.694 15.6965 322.903 15.6616 323.144 15.6287C323.387 15.5958 323.658 15.5683 323.958 15.5463C324.256 15.5207 324.569 15.5078 324.897 15.5078ZM325.29 16.716C325.05 16.716 324.82 16.7269 324.602 16.749C324.384 16.7673 324.193 16.7892 324.029 16.8148C323.832 16.8442 323.651 16.8771 323.488 16.9136V20.6698C323.604 20.6955 323.734 20.7174 323.875 20.7357C323.995 20.754 324.135 20.7704 324.296 20.7852C324.457 20.7961 324.628 20.8016 324.809 20.8016C325.046 20.8016 325.296 20.7961 325.557 20.7852C325.823 20.7704 326.086 20.7393 326.345 20.6918C326.606 20.6442 326.854 20.5746 327.087 20.4831C327.324 20.3879 327.532 20.2635 327.709 20.1097C327.893 19.9522 328.037 19.7582 328.142 19.5275C328.251 19.297 328.305 19.0186 328.305 18.6929C328.305 18.422 328.262 18.184 328.174 17.9791C328.087 17.774 327.968 17.5982 327.82 17.4519C327.67 17.3054 327.496 17.1846 327.296 17.0893C327.098 16.9942 326.887 16.9192 326.661 16.8643C326.44 16.8093 326.21 16.7709 325.973 16.749C325.741 16.7269 325.513 16.716 325.29 16.716Z" fill="#FBFBFB"/>
</svg>
