<svg width="14" height="28" viewBox="0 0 14 28" fill="none" xmlns="http://www.w3.org/2000/svg">
<path d="M4.89258 28C2.17866 28 -0.0292969 25.792 -0.0292969 23.0781V6.5625C-0.0292969 2.94394 2.91464 0 6.5332 0C10.1518 0 13.0957 2.94394 13.0957 6.5625V23.0781H11.4551V6.5625C11.4551 3.84858 9.24712 1.64062 6.5332 1.64062C3.81928 1.64062 1.61133 3.84858 1.61133 6.5625V23.0781C1.61133 24.8874 3.0833 26.3594 4.89258 26.3594C6.70186 26.3594 8.17383 24.8874 8.17383 23.0781V9.84375C8.17383 8.93911 7.43784 8.20312 6.5332 8.20312C5.62856 8.20312 4.89258 8.93911 4.89258 9.84375V23.0781H3.25195V9.84375C3.25195 8.03447 4.72392 6.5625 6.5332 6.5625C8.34248 6.5625 9.81445 8.03447 9.81445 9.84375V23.0781C9.81445 25.792 7.6065 28 4.89258 28Z" fill="#02D2B6"/>
</svg>
