<svg width="80" height="80" viewBox="0 0 80 80" fill="none" xmlns="http://www.w3.org/2000/svg">
<path d="M14.4232 10.6616C14.4232 8.49426 12.6605 6.73096 10.4932 6.73096C8.32581 6.73096 6.5625 8.49426 6.5625 10.6616C6.5625 12.8284 8.32581 14.5917 10.4926 14.5917C12.6599 14.5917 14.4232 12.8284 14.4232 10.6616ZM8.90625 10.6616C8.90625 9.78638 9.61792 9.07471 10.4926 9.07471C11.3678 9.07471 12.0795 9.78638 12.0795 10.6616C12.0795 11.5363 11.3678 12.2479 10.4926 12.2479C9.61792 12.2479 8.90625 11.5363 8.90625 10.6616Z" fill="#02D2B6" fill-opacity="0.6"/>
<path d="M19.8304 14.5917C21.9978 14.5917 23.7611 12.8284 23.7611 10.6616C23.7611 8.49426 21.9978 6.73096 19.8304 6.73096C17.6637 6.73096 15.9004 8.49426 15.9004 10.6616C15.9004 12.8284 17.6631 14.5917 19.8304 14.5917ZM19.8304 9.07471C20.7057 9.07471 21.4174 9.78638 21.4174 10.6616C21.4174 11.5363 20.7057 12.2479 19.8304 12.2479C18.9558 12.2479 18.2441 11.5363 18.2441 10.6616C18.2441 9.78638 18.9558 9.07471 19.8304 9.07471Z" fill="#02D2B6" fill-opacity="0.6"/>
<path d="M29.168 14.5917C31.3347 14.5917 33.098 12.8284 33.098 10.6616C33.098 8.49426 31.3347 6.73096 29.168 6.73096C27.0006 6.73096 25.2373 8.49426 25.2373 10.6616C25.2373 12.8284 27.0006 14.5917 29.168 14.5917ZM29.168 9.07471C30.0426 9.07471 30.7543 9.78638 30.7543 10.6616C30.7543 11.5363 30.0426 12.2479 29.168 12.2479C28.2927 12.2479 27.5811 11.5363 27.5811 10.6616C27.5811 9.78638 28.2927 9.07471 29.168 9.07471Z" fill="#02D2B6" fill-opacity="0.6"/>
<path d="M42.1357 11.8335H70.6776C71.3246 11.8335 71.8495 11.3086 71.8495 10.6616C71.8495 10.014 71.3246 9.48975 70.6776 9.48975H42.1357C41.4882 9.48975 40.9639 10.014 40.9639 10.6616C40.9639 11.3086 41.4882 11.8335 42.1357 11.8335Z" fill="#02D2B6" fill-opacity="0.6"/>
<path d="M75.1068 2.5H4.89319C2.19116 2.5 0 4.6991 0 7.39319V72.5885C0 75.2869 2.19543 77.4817 4.89319 77.4817H75.1068C77.8046 77.4817 80 75.2869 80 72.5885V7.39319C80 4.68994 77.7991 2.5 75.1068 2.5V2.5ZM75.1068 75.1379H4.89319C3.48755 75.1379 2.34375 73.9941 2.34375 72.5885V18.8226H8.87634C9.52393 18.8226 10.0482 18.2977 10.0482 17.6508C10.0482 17.0032 9.52393 16.4789 8.87634 16.4789H2.34375V7.39319C2.34375 5.99121 3.48389 4.84375 4.89319 4.84375H75.1068C76.5088 4.84375 77.6562 5.98328 77.6562 7.39319V16.4789H13.2513C12.6044 16.4789 12.0795 17.0032 12.0795 17.6508C12.0795 18.2977 12.6044 18.8226 13.2513 18.8226H77.6562V72.5885C77.6562 73.9941 76.5125 75.1379 75.1068 75.1379Z" fill="#02D2B6" fill-opacity="0.6"/>
<path d="M67.5093 46.7847C67.9915 46.1176 68.2753 45.2985 68.2753 44.4141C68.2753 42.1771 66.4552 40.3564 64.2177 40.3564C61.9807 40.3564 60.1606 42.1771 60.1606 44.4141C60.1606 46.6516 61.9807 48.4717 64.2177 48.4717C64.7139 48.4717 65.1893 48.382 65.6288 48.2184L67.2487 49.8383C67.7064 50.296 68.448 50.296 68.9058 49.8383C69.3635 49.3805 69.3635 48.6383 68.9058 48.1812L67.5093 46.7847ZM62.5044 44.4147C62.5044 43.4692 63.2728 42.7008 64.2177 42.7008C65.1631 42.7008 65.9315 43.4692 65.9315 44.4147C65.9315 45.3595 65.1631 46.1279 64.2177 46.1279C63.2728 46.1279 62.5044 45.3595 62.5044 44.4147Z" fill="#02D2B6" fill-opacity="0.6"/>
<path d="M52.2139 49.1223C52.2139 48.4753 51.689 47.9504 51.042 47.9504H14.167C13.5194 47.9504 12.9951 48.4753 12.9951 49.1223C12.9951 49.7693 13.5194 50.2942 14.167 50.2942H51.042C51.689 50.2942 52.2139 49.7693 52.2139 49.1223Z" fill="#02D2B6" fill-opacity="0.6"/>
<path d="M69.566 35.2966H10.434C8.29468 35.2966 6.55396 37.0367 6.55396 39.176V51.3623C6.55396 53.5016 8.29468 55.2423 10.434 55.2423H41.8231C42.4701 55.2423 42.995 54.7174 42.995 54.0704C42.995 53.4229 42.4701 52.8986 41.8231 52.8986H10.434C9.58679 52.8986 8.89771 52.2095 8.89771 51.3623V39.176C8.89771 38.3295 9.58679 37.6404 10.434 37.6404H55.9637V52.8986H46.1981C45.5505 52.8986 45.0262 53.4229 45.0262 54.0704C45.0262 54.7174 45.5505 55.2423 46.1981 55.2423H69.566C71.7053 55.2423 73.446 53.5016 73.446 51.3623V39.176C73.446 37.0367 71.7053 35.2966 69.566 35.2966ZM71.1023 51.3623C71.1023 52.2095 70.4132 52.8986 69.566 52.8986H58.3069V37.6404H69.566C70.4047 37.6404 71.1023 38.3197 71.1023 39.176V51.3623Z" fill="#02D2B6" fill-opacity="0.6"/>
</svg>
