<svg width="48" height="48" viewBox="0 0 48 48" fill="none" xmlns="http://www.w3.org/2000/svg">
<circle cx="24" cy="24" r="24" transform="rotate(90 24 24)" fill="#02D2B6"/>
<path d="M33.9931 23.9947L24.8784 14V19.9869H23.8196C21.1968 19.9869 18.7308 21.0084 16.8761 22.8631C15.0214 24.7178 14 27.1837 14 29.8067V34L15.7493 32.0833C18.0892 29.5197 21.4107 28.0367 24.8784 28.003V33.9895L33.9931 23.9947ZM15.172 30.987V29.8067C15.172 27.4969 16.0715 25.3251 17.7048 23.6918C19.3381 22.0585 21.5098 21.159 23.8196 21.159H26.0503V17.0244L32.4071 23.9947L26.0503 30.965V26.8305H24.9988C21.2995 26.8305 17.7421 28.3404 15.172 30.987Z" fill="#FDFDFD"/>
</svg>
