<svg width="14" height="14" viewBox="0 0 14 14" fill="none" xmlns="http://www.w3.org/2000/svg">
<g clip-path="url(#clip0)">
<path d="M14 0.955058C14.0011 0.699421 13.9024 0.459425 13.7222 0.279229C13.542 0.0990339 13.3016 0.000541678 13.0464 0.00147137C12.7915 0.00253777 12.5515 0.102698 12.3707 0.283495C12.2942 0.360057 12.1549 0.525432 12.0787 0.617225C11.9987 0.713612 12.0119 0.85662 12.1083 0.936601C12.2047 1.01661 12.3477 1.00337 12.4277 0.906987C12.547 0.763268 12.6457 0.650093 12.6915 0.604264C12.7871 0.508643 12.9138 0.455651 13.0483 0.455077C13.049 0.455077 13.0497 0.455077 13.0505 0.455077C13.1834 0.455077 13.308 0.506483 13.4015 0.599971C13.4955 0.693952 13.5469 0.819378 13.5464 0.953143C13.5458 1.08759 13.4928 1.2143 13.3972 1.30998C13.3116 1.39559 13.0173 1.62903 12.5957 1.92355C12.3463 1.49715 11.8837 1.2099 11.3551 1.2099H8.03381C7.58548 1.2099 7.16401 1.38449 6.84696 1.70149L0.208168 8.34036C0.0739375 8.47459 0 8.65306 0 8.84288C0 9.0327 0.0739375 9.2112 0.208168 9.34541L4.65609 13.7933C4.79467 13.9319 4.97662 14.0011 5.15862 14.0011C5.34062 14.0011 5.52262 13.9319 5.66114 13.7933L12.3 7.15452C12.617 6.83749 12.7916 6.41602 12.7916 5.96766V2.64641C12.7916 2.54838 12.7816 2.45267 12.7628 2.36012C13.2427 2.02989 13.595 1.75363 13.7179 1.63075C13.8988 1.44995 13.9989 1.20998 14 0.955058ZM12.338 5.96766C12.338 6.29483 12.2105 6.60242 11.9792 6.83372L5.3404 13.4726C5.24021 13.5728 5.07708 13.5728 4.97686 13.4726L0.528938 9.02466C0.480402 8.97613 0.453633 8.91157 0.453633 8.84288C0.453633 8.77419 0.480375 8.70966 0.528938 8.66113L7.16775 2.02231C7.39911 1.79098 7.70667 1.66359 8.03381 1.66359H11.3551C11.728 1.66359 12.0532 1.87241 12.2196 2.17926C11.9517 2.35667 11.6517 2.54532 11.3335 2.73082C11.3235 2.71993 11.3134 2.70916 11.3029 2.69863C10.9314 2.32719 10.3271 2.32719 9.95564 2.69863C9.5842 3.07007 9.5842 3.67442 9.95564 4.04586C10.1414 4.23158 10.3853 4.32441 10.6293 4.32441C10.8732 4.32441 11.1171 4.23158 11.3029 4.04586C11.5508 3.79793 11.633 3.44632 11.5499 3.12938C11.8267 2.96824 12.0926 2.80355 12.3379 2.64422C12.3379 2.64498 12.3379 2.64569 12.3379 2.64643V5.96766H12.338ZM10.4267 3.47416C10.4665 3.55337 10.5465 3.59909 10.6295 3.59909C10.6638 3.59909 10.6986 3.5913 10.7313 3.57483C10.8642 3.50795 10.9967 3.43839 11.1279 3.36713C11.1292 3.4966 11.0808 3.62649 10.9822 3.72509C10.7876 3.91964 10.4711 3.91964 10.2765 3.72509C10.0819 3.53051 10.0819 3.21398 10.2765 3.0194C10.3738 2.92211 10.5016 2.8735 10.6293 2.8735C10.7305 2.8735 10.8314 2.9045 10.9174 2.96545C10.7891 3.03523 10.6588 3.10357 10.5274 3.16966C10.4155 3.2259 10.3704 3.36226 10.4267 3.47416Z" fill="#1B1B1B" fill-opacity="0.6"/>
</g>
<defs>
<clipPath id="clip0">
<rect width="14" height="14" fill="white"/>
</clipPath>
</defs>
</svg>
