<svg width="80" height="80" viewBox="0 0 80 80" fill="none" xmlns="http://www.w3.org/2000/svg">
<g clip-path="url(#clip0)">
<path d="M14.267 10.817C14.267 8.64966 12.5043 6.88696 10.3369 6.88696C8.16956 6.88696 6.40625 8.64966 6.40625 10.817C6.40625 12.9844 8.16956 14.7471 10.3369 14.7471C12.5037 14.7471 14.267 12.9844 14.267 10.817ZM8.75 10.817C8.75 9.94239 9.46229 9.23072 10.3369 9.23072C11.2116 9.23072 11.9232 9.94239 11.9232 10.817C11.9232 11.6917 11.2116 12.4033 10.3369 12.4033C9.46229 12.4033 8.75 11.6917 8.75 10.817Z" fill="#02D2B6" fill-opacity="0.6"/>
<path d="M19.6742 14.7471C21.8416 14.7471 23.6049 12.9844 23.6049 10.817C23.6049 8.64966 21.8416 6.88696 19.6742 6.88696C17.5068 6.88696 15.7441 8.64966 15.7441 10.817C15.7441 12.9844 17.5068 14.7471 19.6742 14.7471ZM19.6742 9.23072C20.5494 9.23072 21.2611 9.94239 21.2611 10.817C21.2611 11.6917 20.5488 12.4033 19.6742 12.4033C18.7996 12.4033 18.0879 11.6917 18.0879 10.817C18.0879 9.94239 18.7996 9.23072 19.6742 9.23072Z" fill="#02D2B6" fill-opacity="0.6"/>
<path d="M29.012 14.7471C31.1787 14.7471 32.942 12.9844 32.942 10.817C32.942 8.64966 31.1787 6.88696 29.012 6.88696C26.8446 6.88696 25.0813 8.64966 25.0813 10.817C25.0813 12.9844 26.8446 14.7471 29.012 14.7471ZM29.012 9.23072C29.8866 9.23072 30.5983 9.94239 30.5983 10.817C30.5983 11.6917 29.8866 12.4033 29.012 12.4033C28.1367 12.4033 27.4251 11.6917 27.4251 10.817C27.4251 9.94239 28.1367 9.23072 29.012 9.23072Z" fill="#02D2B6" fill-opacity="0.6"/>
<path d="M41.9795 11.989H70.5208C71.1684 11.989 71.6927 11.4647 71.6927 10.8171C71.6927 10.1696 71.1684 9.64526 70.5208 9.64526H41.9795C41.3319 9.64526 40.8076 10.1696 40.8076 10.8171C40.8076 11.4647 41.3319 11.989 41.9795 11.989Z" fill="#02D2B6" fill-opacity="0.6"/>
<path d="M74.9507 2.65625H4.73695C2.03919 2.65625 -0.15625 4.85108 -0.15625 7.54945V72.7449C-0.15625 75.4426 2.03919 77.6381 4.73695 77.6381H74.9507C77.6485 77.6381 79.8439 75.4426 79.8439 72.7449V7.54945C79.8439 4.85108 77.6485 2.65625 74.9507 2.65625ZM74.9507 75.2943H4.73695C3.33131 75.2943 2.1875 74.1505 2.1875 72.7449V18.9783H8.72011C9.36769 18.9783 9.89199 18.454 9.89199 17.8064C9.89199 17.1595 9.36769 16.6345 8.72011 16.6345H2.1875V7.54945C2.1875 6.14381 3.33131 5 4.73695 5H74.9507C76.3564 5 77.5002 6.14381 77.5002 7.54945V16.6345H13.0951C12.4481 16.6345 11.9232 17.1595 11.9232 17.8064C11.9232 18.454 12.4481 18.9783 13.0951 18.9783H77.5002V72.7449C77.5002 74.1505 76.3564 75.2943 74.9507 75.2943Z" fill="#02D2B6" fill-opacity="0.6"/>
<path d="M66.1568 21.8999H55.9151C53.8692 21.8999 52.2048 23.5643 52.2048 25.6102V27.0281C51.003 27.4096 50.0527 28.3605 49.6724 29.5629L31.3686 29.6319C30.9871 28.4331 30.038 27.4852 28.8387 27.1044V25.6871C28.8387 23.6412 27.1742 21.9768 25.1283 21.9768H14.8872C12.8413 21.9768 11.1769 23.6412 11.1769 25.6871V35.9283C11.1769 37.9742 12.8413 39.638 14.8872 39.638H16.3045C16.6853 40.8391 17.635 41.7889 18.8362 42.1697V46.9579C18.8362 49.4286 20.8461 51.4385 23.3168 51.4385H34.3556C34.7365 52.6391 35.6862 53.5888 36.8868 53.9697V55.4681C36.8868 57.4694 38.5152 59.0979 40.5165 59.0979H42.1041C42.441 60.2722 43.3187 61.2194 44.449 61.6534C44.1121 62.3248 43.4175 62.7862 42.6174 62.7862H30.1003C29.7969 61.4355 28.788 60.3491 27.4831 59.9346V58.5168C27.4831 56.4709 25.8186 54.8065 23.7727 54.8065H13.531C11.4857 54.8065 9.82129 56.4709 9.82129 58.5168V68.7585C9.82129 70.8044 11.4857 72.4682 13.531 72.4682H23.7727C25.8186 72.4682 27.4831 70.8044 27.4831 68.7585V67.3407C28.5744 66.994 29.4588 66.1779 29.8964 65.13H42.6174C44.6852 65.13 46.4241 63.6932 46.888 61.7657C48.1795 61.4025 49.2006 60.3863 49.5711 59.0979H50.9188C52.9207 59.0979 54.5485 57.4694 54.5485 55.4681V52.3852C54.5485 51.7376 54.0243 51.2133 53.3767 51.2133C52.7297 51.2133 52.2048 51.7376 52.2048 52.3852V55.4681C52.2048 56.1773 51.628 56.7541 50.9188 56.7541H49.507C48.2888 53.258 43.3705 53.2855 42.1675 56.7541H40.5165C39.8073 56.7541 39.2305 56.1773 39.2305 55.4681V53.9697C39.4808 53.8903 39.717 53.7884 39.9477 53.6596C39.9642 53.6431 41.9423 52.644 41.9423 50.2667C41.9423 48.5827 40.851 47.0806 39.2305 46.5636V45.0658C39.2305 44.3566 39.8073 43.7798 40.5165 43.7798H50.9188C51.628 43.7798 52.2048 44.3566 52.2048 45.0658V48.1487C52.2048 48.7957 52.7297 49.3206 53.3767 49.3206C54.0243 49.3206 54.5485 48.7957 54.5485 48.1487V45.0658C54.5485 43.0645 52.9201 41.4361 50.9188 41.4361H40.5165C38.5152 41.4361 36.8868 43.0645 36.8868 45.0658V46.5636C35.6862 46.9445 34.7365 47.8942 34.3556 49.0948H23.3174C22.1388 49.0948 21.18 48.1359 21.18 46.9579V42.1697C22.3805 41.7889 23.3302 40.8391 23.7111 39.638H25.1289C27.1742 39.638 28.8387 37.9742 28.8387 35.9283V34.5104C30.0411 34.1289 30.9914 33.178 31.371 31.9756L49.6749 31.9066C50.0564 33.1054 51.0055 34.0539 52.2048 34.4341V35.852C52.2048 37.8979 53.8692 39.5623 55.9151 39.5623H66.1568C68.2021 39.5623 69.8666 37.8979 69.8666 35.852V25.6102C69.8666 23.5643 68.2021 21.8999 66.1568 21.8999ZM26.3112 65.1776C25.4616 65.1776 24.7713 64.4867 24.7713 63.6377C24.7713 62.7887 25.4622 62.0977 26.3112 62.0977C27.1602 62.0977 27.8511 62.7887 27.8511 63.6377C27.8511 64.4867 27.1602 65.1776 26.3112 65.1776ZM25.1393 68.7585C25.1393 69.5117 24.5265 70.1245 23.7727 70.1245H13.531C12.7778 70.1245 12.165 69.5117 12.165 68.7585V58.5168C12.165 57.763 12.7778 57.1502 13.531 57.1502H23.7727C24.5265 57.1502 25.1393 57.763 25.1393 58.5168V59.9346C21.5053 61.0925 21.5474 66.1956 25.1393 67.3407V68.7585ZM47.3769 58.0334C47.3732 58.8793 46.6842 59.566 45.837 59.566C44.9904 59.566 44.3013 58.8793 44.2977 58.0334C44.4905 55.9185 47.192 56.0076 47.3769 58.0334ZM38.2924 48.7444C39.0309 48.858 39.5986 49.4976 39.5986 50.2667C39.5986 51.1175 38.9064 51.8066 38.0586 51.8066C37.209 51.8066 36.5187 51.1157 36.5187 50.2667C36.5187 49.3273 37.358 48.6016 38.2924 48.7444ZM27.6668 32.3473C26.8178 32.3473 26.1269 31.6564 26.1269 30.8074C26.1269 29.9584 26.8178 29.2675 27.6668 29.2675C28.5158 29.2675 29.2067 29.9584 29.2067 30.8074C29.2067 31.6564 28.5164 32.3473 27.6668 32.3473ZM20.0081 40.0066C19.0742 40.0066 18.3418 39.1735 18.4859 38.2323C18.5988 37.4938 19.2384 36.9268 20.0081 36.9268C20.8565 36.9268 21.548 37.6165 21.548 38.4661C21.548 39.3157 20.8571 40.0066 20.0081 40.0066ZM26.4949 35.9283C26.4949 36.6814 25.8821 37.2942 25.1283 37.2942H23.7111C23.102 35.3918 21.1665 34.2656 19.2293 34.6612C19.2128 34.6697 17.0338 35.0158 16.3051 37.2942H14.8872C14.1334 37.2942 13.5206 36.6814 13.5206 35.9283V25.6865C13.5206 24.9334 14.1334 24.32 14.8872 24.32H25.1289C25.8821 24.32 26.4949 24.9334 26.4949 25.6865V27.1044C24.8512 27.6281 23.6995 29.1973 23.788 31.0033C23.7947 31.0192 23.8112 33.6547 26.4949 34.5104V35.9283ZM53.3767 29.1912C54.2238 29.1912 54.9166 29.8803 54.9166 30.7311C54.9166 31.5831 54.2226 32.271 53.3767 32.271C52.5277 32.271 51.8368 31.5801 51.8368 30.7311C51.8368 29.8821 52.5277 29.1912 53.3767 29.1912ZM67.5228 35.852C67.5228 36.6051 66.91 37.2185 66.1568 37.2185H55.9151C55.1613 37.2185 54.5485 36.6051 54.5485 35.852V34.4341C56.2234 33.9007 57.3458 32.3089 57.2555 30.5321V30.5315C57.1743 28.9202 56.0927 27.52 54.5485 27.0281V25.6102C54.5485 24.8571 55.1613 24.2443 55.9151 24.2443H66.1568C66.91 24.2443 67.5228 24.8571 67.5228 25.6102V35.852Z" fill="#02D2B6" fill-opacity="0.6"/>
</g>
<defs>
<clipPath id="clip0">
<rect width="80" height="80" fill="white"/>
</clipPath>
</defs>
</svg>
