<svg width="40" height="40" viewBox="0 0 40 40" fill="none" xmlns="http://www.w3.org/2000/svg">
<g clip-path="url(#clip0)">
<path d="M18.204 25.024H16.1406C15.8171 25.024 15.5547 25.2865 15.5547 25.6103C15.5547 25.9341 15.8171 26.1962 16.1406 26.1962H18.204C18.5274 26.1962 18.7899 25.9341 18.7899 25.6103C18.7899 25.2865 18.5274 25.024 18.204 25.024Z" fill="#02D2B6"/>
<path d="M18.0931 28.7786C18.4169 28.7786 18.6791 28.5165 18.6791 28.1927C18.6791 27.8689 18.4169 27.6064 18.0931 27.6064H16.1406C15.8171 27.6064 15.5547 27.8689 15.5547 28.1927C15.5547 28.5165 15.8171 28.7786 16.1406 28.7786H18.0931Z" fill="#02D2B6"/>
<path d="M3.53151 2.02893C2.58301 2.02893 1.81152 2.80073 1.81152 3.74892C1.81152 4.69741 2.58301 5.4689 3.53151 5.4689C4.4797 5.4689 5.25119 4.69741 5.25119 3.74892C5.25119 2.80073 4.4797 2.02893 3.53151 2.02893ZM3.53151 4.29671C3.22938 4.29671 2.98371 4.05074 2.98371 3.74892C2.98371 3.44679 3.22938 3.20112 3.53151 3.20112C3.83333 3.20112 4.0793 3.44679 4.0793 3.74892C4.0793 4.05074 3.83363 4.29671 3.53151 4.29671Z" fill="#02D2B6"/>
<path d="M7.91139 2.02893C6.9632 2.02893 6.19141 2.80073 6.19141 3.74892C6.19141 4.69741 6.9632 5.4689 7.91139 5.4689C8.85988 5.4689 9.63137 4.69741 9.63137 3.74892C9.63137 2.80073 8.85988 2.02893 7.91139 2.02893ZM7.91139 4.29671C7.60957 4.29671 7.3636 4.05074 7.3636 3.74892C7.3636 3.44679 7.60957 3.20112 7.91139 3.20112C8.21352 3.20112 8.45918 3.44679 8.45918 3.74892C8.45918 4.05074 8.21352 4.29671 7.91139 4.29671Z" fill="#02D2B6"/>
<path d="M12.2874 2.02893C11.3389 2.02893 10.5674 2.80073 10.5674 3.74892C10.5674 4.69741 11.3389 5.4689 12.2874 5.4689C13.2356 5.4689 14.0074 4.69741 14.0074 3.74892C14.0074 2.80073 13.2356 2.02893 12.2874 2.02893ZM12.2874 4.29671C11.9852 4.29671 11.7396 4.05074 11.7396 3.74892C11.7396 3.44679 11.9852 3.20112 12.2874 3.20112C12.5895 3.20112 12.8352 3.44679 12.8352 3.74892C12.8352 4.05074 12.5895 4.29671 12.2874 4.29671Z" fill="#02D2B6"/>
<path d="M12.1049 19.791H5.54695C4.59998 19.791 3.8291 20.5619 3.8291 21.5092V27.3332C3.8291 28.2804 4.59998 29.051 5.54695 29.051H12.1049C13.0519 29.051 13.8228 28.2804 13.8228 27.3332V21.5092C13.8228 20.5619 13.0519 19.791 12.1049 19.791ZM11.7488 20.9632L8.82578 23.5502L5.90309 20.9632H11.7488ZM5.00129 26.9352V21.7304L7.94168 24.3327L5.00129 26.9352ZM5.70351 27.8788L8.82609 25.1154L11.9484 27.8788H5.70351ZM12.6506 26.9352L9.71019 24.3327L12.6506 21.7304V26.9352Z" fill="#02D2B6"/>
<path d="M18.7533 20.0663H16.1406C15.8171 20.0663 15.5547 20.3288 15.5547 20.6526C15.5547 20.9764 15.8171 21.2386 16.1406 21.2386H18.7533C19.0771 21.2386 19.3392 20.9764 19.3392 20.6526C19.3392 20.3288 19.0768 20.0663 18.7533 20.0663Z" fill="#02D2B6"/>
<path d="M29.9844 21.2386H31.6055C31.9293 21.2386 32.1914 20.9764 32.1914 20.6526C32.1914 20.3288 31.9293 20.0663 31.6055 20.0663H29.9844C29.6609 20.0663 29.3984 20.3288 29.3984 20.6526C29.3984 20.9764 29.6609 21.2386 29.9844 21.2386Z" fill="#02D2B6"/>
<path d="M19.3392 23.2347C19.3392 22.9109 19.0771 22.6484 18.7533 22.6484H16.1406C15.8171 22.6484 15.5547 22.9109 15.5547 23.2347C15.5547 23.5585 15.8171 23.8206 16.1406 23.8206H18.7533C19.0768 23.8206 19.3392 23.5582 19.3392 23.2347Z" fill="#02D2B6"/>
<path d="M16.3897 11.8545H18.0932C18.4169 11.8545 18.6791 11.5923 18.6791 11.2686C18.6791 10.9448 18.4169 10.6826 18.0932 10.6826H16.3897C16.0662 10.6826 15.8037 10.9448 15.8037 11.2686C15.8037 11.5923 16.0662 11.8545 16.3897 11.8545Z" fill="#02D2B6"/>
<path d="M30.9782 11.2686C30.9782 10.9448 30.7161 10.6826 30.3923 10.6826H20C19.6762 10.6826 19.4141 10.9448 19.4141 11.2686C19.4141 11.5923 19.6762 11.8545 20 11.8545H30.3923C30.7158 11.8545 30.9782 11.5923 30.9782 11.2686Z" fill="#02D2B6"/>
<path d="M25.0127 14.889H28.8131C29.1369 14.889 29.3993 14.6265 29.3993 14.303C29.3993 13.9793 29.1369 13.7168 28.8131 13.7168H25.0127C24.6889 13.7168 24.4268 13.9793 24.4268 14.303C24.4268 14.6265 24.6889 14.889 25.0127 14.889Z" fill="#02D2B6"/>
<path d="M21.8398 13.7168C21.5164 13.7168 21.2539 13.9793 21.2539 14.303C21.2539 14.6265 21.5164 14.889 21.8398 14.889H23.0245C23.3483 14.889 23.6108 14.6265 23.6108 14.303C23.6108 13.9793 23.3483 13.7168 23.0245 13.7168H21.8398Z" fill="#02D2B6"/>
<path d="M20.5209 14.303C20.5209 13.9793 20.2587 13.7168 19.9349 13.7168H16.39C16.0662 13.7168 15.8037 13.9793 15.8037 14.303C15.8037 14.6265 16.0662 14.889 16.39 14.889H19.9349C20.2584 14.889 20.5209 14.6265 20.5209 14.303Z" fill="#02D2B6"/>
<path d="M5.30324 12.2313V11.404C5.30324 11.1232 5.4067 10.8497 5.6603 10.706C5.75491 10.6523 5.85592 10.6273 5.95968 10.6169C6.25723 10.587 6.48794 10.345 6.48794 10.0459V10.0181C6.48794 9.70197 6.23159 9.44562 5.91512 9.44562H5.88308C5.17873 9.4682 4.13105 10.0081 4.13105 11.404V11.9188L3.57197 12.2948C3.29822 12.4785 3.15967 12.812 3.23536 13.1468C3.28144 13.3519 3.41327 13.528 3.58784 13.6452L4.13105 14.0102V14.5253C4.13105 15.9209 5.17873 16.4611 5.88308 16.4837C5.88949 16.484 5.8959 16.484 5.90231 16.484C6.21725 16.484 6.47726 16.2337 6.48764 15.9166C6.49801 15.5931 6.24411 15.3224 5.92062 15.3121C5.91909 15.3121 5.75796 15.2971 5.60934 15.2086C5.47811 15.1305 5.30324 14.9745 5.30324 14.5253V13.698C5.30324 13.5027 5.2062 13.3202 5.04415 13.2115L4.67671 12.9646L5.04415 12.7181C5.2062 12.6088 5.30324 12.4263 5.30324 12.2313Z" fill="#02D2B6"/>
<path d="M6.96967 15.1458C6.81494 15.1458 6.66418 15.0833 6.55463 14.9746C6.44598 14.8654 6.38281 14.7143 6.38281 14.5596C6.38281 14.4409 6.41608 14.3347 6.48199 14.2346C6.50305 14.2025 6.52808 14.172 6.55463 14.1458C6.66418 14.0362 6.81494 13.9736 6.96967 13.9736C7.12378 13.9736 7.27454 14.0362 7.38379 14.1458C7.48999 14.2517 7.55591 14.41 7.55591 14.5599C7.55591 14.7143 7.49335 14.8654 7.38379 14.9746C7.27454 15.0833 7.12378 15.1458 6.96967 15.1458Z" fill="#02D2B6"/>
<path d="M14.5166 12.2948L13.9575 11.9188V11.4039C13.9575 10.0081 12.9098 9.4679 12.2054 9.44562H12.1734C11.8569 9.44562 11.6006 9.70197 11.6006 10.0181V10.0459C11.6006 10.345 11.8313 10.587 12.1288 10.6169C12.2326 10.6273 12.3336 10.6523 12.4282 10.706C12.6818 10.8497 12.7853 11.1232 12.7853 11.4039V12.2313C12.7853 12.4263 12.8823 12.6088 13.0444 12.7177L13.4118 12.9646L13.0444 13.2112C12.8826 13.3202 12.7853 13.5027 12.7853 13.6977V14.525C12.7853 14.9742 12.6107 15.1302 12.4792 15.2083C12.3306 15.2968 12.1694 15.3118 12.1679 15.3121C11.8444 15.3224 11.5905 15.5928 11.6012 15.9166C11.6113 16.2337 11.8716 16.4836 12.1865 16.4836C12.1929 16.4836 12.199 16.4836 12.2054 16.4833C12.9098 16.4611 13.9575 15.9209 13.9575 14.525V14.0102L14.501 13.6449C14.6756 13.5277 14.8071 13.3519 14.8532 13.1465C14.9289 12.812 14.7903 12.4782 14.5166 12.2948Z" fill="#02D2B6"/>
<path d="M9.46419 14.2352C9.37874 14.1089 9.24507 14.017 9.09218 13.9853C9.01619 13.9697 8.93806 13.9697 8.86299 13.9853C8.82545 13.9926 8.78822 14.0042 8.75282 14.0192C8.65059 14.0622 8.55079 14.1431 8.49037 14.2346C8.34144 14.4614 8.36952 14.7815 8.563 14.9747C8.62587 15.0376 8.67286 15.0675 8.75282 15.1013C8.84926 15.1419 8.95912 15.1493 9.06166 15.1346C9.11598 15.127 9.16969 15.1132 9.22035 15.0916C9.46724 14.9857 9.6 14.7049 9.55147 14.4458C9.53774 14.372 9.50631 14.2972 9.46419 14.2352Z" fill="#02D2B6"/>
<path d="M11.4723 14.2364C11.3646 14.0798 11.1837 13.9736 10.9883 13.9736C10.8336 13.9736 10.6829 14.0362 10.5733 14.1454C10.5156 14.2034 10.4784 14.2599 10.4467 14.3356C10.3581 14.5498 10.4076 14.8098 10.5733 14.9746C10.6826 15.0833 10.8336 15.1458 10.9883 15.1458C11.1421 15.1458 11.2932 15.0833 11.4025 14.9746C11.6017 14.7766 11.6292 14.465 11.4723 14.2364Z" fill="#02D2B6"/>
<path d="M12.9673 34.3038H2.34285C1.6974 34.3038 1.17219 33.7786 1.17219 33.1328V7.24365H34.2263V12.3807C34.2263 12.7045 34.4885 12.967 34.8123 12.967C35.1361 12.967 35.3982 12.7045 35.3982 12.3807V2.42061C35.3982 1.12849 34.3472 0.0774536 33.0554 0.0774536H2.34285C1.05103 0.0774536 0 1.12849 0 2.42061V33.1328C0 34.4246 1.05103 35.4757 2.34285 35.4757H12.9673C13.2911 35.4757 13.5536 35.2135 13.5536 34.8897C13.5536 34.5659 13.2911 34.3038 12.9673 34.3038ZM1.17219 2.42061C1.17219 1.77485 1.6974 1.24964 2.34285 1.24964H33.0554C33.7008 1.24964 34.226 1.77485 34.226 2.42061V6.07146H1.17219V2.42061Z" fill="#02D2B6"/>
<path d="M38.9402 31.4518H34.6726L37.7562 28.3683C38.1694 27.9551 38.1694 27.2828 37.7562 26.8696L35.398 24.5115V16.0403C35.398 15.7166 35.1359 15.4541 34.8121 15.4541C34.4883 15.4541 34.2262 15.7166 34.2262 16.0403V23.3393L33.1739 22.287C32.7607 21.8744 32.0884 21.8741 31.6752 22.2873L28.5917 25.3708V21.1032C28.5917 20.5188 28.1162 20.0434 27.5321 20.0434H21.0516C20.4672 20.0434 19.9917 20.5188 19.9917 21.1032V26.9004C19.9917 26.9044 19.9923 26.908 19.9923 26.912C19.9923 26.916 19.9917 26.9196 19.9917 26.9236V34.3034H16.6397C16.3162 34.3034 16.0537 34.5658 16.0537 34.8896C16.0537 35.2131 16.3162 35.4756 16.6397 35.4756H19.9917V35.5925C19.9917 36.7659 20.2847 37.8492 21.1007 38.7275C21.8548 39.5387 22.9205 40.0224 24.0283 40.0502C24.0631 40.0508 24.0979 40.0514 24.1327 40.0514H33.1196C33.1235 40.0514 33.1272 40.0508 33.1312 40.0508C33.1351 40.0508 33.1388 40.0514 33.1428 40.0514H38.9399C39.5244 40.0514 39.9998 39.5759 39.9998 38.9918V32.5114C40.0001 31.9273 39.5247 31.4518 38.9402 31.4518ZM21.1642 21.2155H27.4198V26.3145H21.1642V21.2155ZM21.1642 27.5098H26.4527L21.7615 32.2013C21.5863 32.324 21.4224 32.461 21.2686 32.6084H21.1642V27.5098ZM26.2628 38.8795H24.1327C22.4957 38.8795 21.1642 37.5477 21.1642 35.9108V35.5928C21.1642 33.9558 22.4957 32.624 24.1327 32.624H26.2628V38.8795ZM24.5685 31.4518L24.3686 31.2516L27.974 27.6462L31.7792 31.4518H24.5685ZM32.5336 38.8795H27.435V32.624H32.5336V38.8795ZM28.8193 26.8009L32.4247 23.1955L36.8479 27.6188L33.2426 31.2241L28.8193 26.8009ZM38.8279 38.8795H33.7293V32.624H38.8279V38.8795Z" fill="#02D2B6"/>
<path d="M21.8242 35.7521C21.8242 36.7531 22.6387 37.5679 23.6397 37.5679C24.641 37.5679 25.4555 36.7531 25.4555 35.7521C25.4555 34.7508 24.641 33.9362 23.6397 33.9362C22.6387 33.9362 21.8242 34.7508 21.8242 35.7521ZM24.2836 35.7521C24.2836 36.107 23.9946 36.3957 23.6397 36.3957C23.2848 36.3957 22.9964 36.107 22.9964 35.7521C22.9964 35.3971 23.2848 35.1084 23.6397 35.1084C23.9946 35.1084 24.2836 35.3971 24.2836 35.7521Z" fill="#02D2B6"/>
</g>
<defs>
<clipPath id="clip0">
<rect width="40" height="40" fill="white"/>
</clipPath>
</defs>
</svg>
